<svg width="368" height="179" viewBox="0 0 368 179" fill="none" xmlns="http://www.w3.org/2000/svg">
<path d="M256.76 130V102.4C263.026 95.6 268.56 88.9334 273.36 82.4001C278.16 75.7334 282.36 69.2001 285.96 62.8C289.56 56.2667 292.76 49.7334 295.56 43.2001C298.493 36.5334 301.226 29.7334 303.76 22.8H350.96V155H322.16V44.8001H321.36C318.826 52.4001 315.693 59.7334 311.96 66.8C308.36 73.8667 304.36 80.6001 299.96 87.0001C295.56 93.2667 290.893 99.2667 285.96 105V105.8H367.96V130H256.76Z" fill="#08202D"/>
<path d="M0.0410156 130V102.4C6.30768 95.6 11.841 88.9334 16.641 82.4001C21.441 75.7334 25.641 69.2001 29.241 62.8C32.841 56.2667 36.041 49.7334 38.841 43.2001C41.7744 36.5334 44.5077 29.7334 47.041 22.8H94.241V155H65.441V44.8001H64.641C62.1077 52.4001 58.9743 59.7334 55.241 66.8C51.641 73.8667 47.641 80.6001 43.241 87.0001C38.841 93.2667 34.1743 99.2667 29.241 105V105.8H111.241V130H0.0410156Z" fill="#08202D"/>
<path fill-rule="evenodd" clip-rule="evenodd" d="M115.773 87.5154C113.703 83.3058 108.949 72.9907 108.685 63.5929C108.206 46.5091 122.586 26.7347 141.567 20.8176C160.652 14.868 181.769 22.9026 193.114 39.064C193.18 39.1572 193.058 39.262 192.968 39.1924C191.394 37.9752 189.95 36.8477 188.611 35.8027C178.493 27.9036 174.407 24.714 165.925 23.1149C165.841 23.0991 165.777 23.1902 165.819 23.264C166.198 23.9244 166.552 24.5289 166.882 25.0915C169.102 28.8795 170.213 30.7735 170.213 35.0803C170.213 37.9472 168.731 41.8358 167.079 46.1705C164.333 53.3774 161.117 61.8173 163.46 68.8453C164.939 74.0218 167.875 81.3848 178.016 83.0329C178.122 83.05 178.14 83.1972 178.037 83.2253C170.437 85.2967 156.769 82.9824 149.889 67.1682C148.958 64.946 148.408 58.643 148.298 57.2775C148.291 57.1852 148.178 57.1501 148.123 57.225C146.741 59.1223 136.515 73.4597 134.86 84.4536C133.752 91.8145 135.346 98.0246 136.87 103.965C137.617 106.873 138.346 109.716 138.734 112.597C138.747 112.689 138.639 112.745 138.571 112.683C128.947 104.026 126.726 88.5817 127.406 76.4959C128.089 64.3666 134.377 51.3166 136.173 50.4348C136.186 50.4285 136.197 50.4267 136.211 50.4267C136.459 50.4268 136.726 50.4285 137.01 50.4303C141.523 50.4597 150.271 50.5165 156.175 44.4231C162.461 37.9763 160.446 29.105 156.86 26.09C153.274 23.075 147.179 21.9556 137.963 26.7347C129.137 31.3112 118.064 40.663 113.707 54.335C110.081 65.7126 113.379 77.9177 115.51 85.8027C115.664 86.3744 115.813 86.9234 115.952 87.4477C115.982 87.5636 115.826 87.623 115.773 87.5154ZM145.756 46.8813C151.558 46.8813 156.261 42.1782 156.261 36.3766C156.261 30.5751 151.558 25.872 145.756 25.872C139.955 25.872 135.252 30.5751 135.252 36.3766C135.252 42.1782 139.955 46.8813 145.756 46.8813Z" fill="url(#paint0_linear_364_1579)"/>
<path fill-rule="evenodd" clip-rule="evenodd" d="M217.783 20.7583C222.395 21.6173 233.505 23.9777 241.194 29.3874C255.172 39.2215 262.418 62.5733 255.807 81.3237C249.159 100.177 230.09 112.294 210.352 111.72C210.238 111.717 210.227 111.557 210.336 111.526C212.253 110.993 214.021 110.51 215.659 110.062C228.041 106.678 233.041 105.311 239.396 99.4702C239.459 99.4126 239.424 99.3062 239.34 99.296C238.584 99.2046 237.888 99.127 237.24 99.0548C232.876 98.5686 230.694 98.3255 227.242 95.7494C224.945 94.0347 222.715 90.5213 220.229 86.6049C216.096 80.0935 211.256 72.468 204.222 70.1417C199.189 68.2308 191.532 66.1802 184.146 73.3213C184.069 73.3956 183.94 73.322 183.979 73.2224C186.865 65.8928 196.895 56.3237 213.683 60.2697C216.021 60.852 221.401 64.1819 222.561 64.9105C222.64 64.9597 222.735 64.8901 222.708 64.8016C222.014 62.5594 216.641 45.7885 208.82 37.8864C203.584 32.5957 197.654 30.1584 191.981 27.827C189.205 26.6858 186.49 25.57 183.949 24.1574C183.868 24.1126 183.887 23.9927 183.978 23.9746C196.672 21.4407 210.377 28.8984 219.656 36.6725C228.968 44.4746 235.665 57.3191 235.298 59.286C235.295 59.3 235.29 59.3099 235.281 59.3214C235.133 59.5203 234.972 59.7331 234.801 59.9593C232.078 63.5584 226.8 70.5352 228.151 78.9115C229.558 87.8048 237.873 91.4965 242.434 90.426C246.995 89.3556 251.538 85.1408 253.22 74.8963C254.831 65.0861 253.96 50.6182 245.61 38.9489C238.66 29.238 226.907 24.5808 219.313 21.572C218.763 21.3538 218.234 21.1443 217.731 20.9422C217.619 20.8976 217.665 20.7363 217.783 20.7583ZM232.411 69.0923C228.941 73.7417 229.897 80.3238 234.546 83.7939C239.196 87.264 245.778 86.308 249.248 81.6586C252.718 77.0093 251.762 70.4272 247.113 66.9571C242.463 63.487 235.881 64.443 232.411 69.0923Z" fill="url(#paint1_linear_364_1579)"/>
<path fill-rule="evenodd" clip-rule="evenodd" d="M229.288 137.966C226.664 141.855 220.078 151.108 212.055 156.01C197.471 164.92 173.164 162.275 158.593 148.748C143.942 135.148 140.414 112.831 148.795 94.9517C148.843 94.8487 148.995 94.902 148.979 95.0147C148.706 96.9856 148.446 98.7993 148.204 100.48C146.382 113.187 145.646 118.317 148.476 126.472C148.504 126.552 148.615 126.563 148.658 126.49C149.042 125.833 149.391 125.225 149.715 124.659C151.897 120.849 152.989 118.944 156.725 116.803C159.213 115.377 163.324 114.73 167.906 114.007C175.524 112.807 184.446 111.401 189.379 105.874C193.135 102.017 198.063 95.8081 194.451 86.1901C194.413 86.09 194.532 86.0013 194.608 86.0768C200.184 91.641 204.971 104.65 194.671 118.482C193.206 120.395 188.01 124.006 186.88 124.78C186.804 124.832 186.83 124.948 186.922 124.958C189.255 125.214 206.779 126.958 217.141 122.927C224.078 120.229 228.674 115.759 233.07 111.482C235.222 109.389 237.326 107.343 239.633 105.573C239.706 105.517 239.809 105.582 239.789 105.672C237.063 118.326 224.767 127.933 213.942 133.351C203.079 138.79 188.63 139.823 186.972 138.703C186.96 138.695 186.953 138.686 186.946 138.674C186.823 138.458 186.692 138.226 186.552 137.979C184.334 134.049 180.034 126.43 171.811 124.337C163.092 122.089 156.397 128.248 155.564 132.858C154.731 137.468 156.79 143.313 165.519 148.933C173.878 154.315 187.498 159.273 201.526 156.256C213.201 153.745 222.15 144.815 227.932 139.046C228.352 138.628 228.754 138.226 229.14 137.845C229.225 137.76 229.355 137.867 229.288 137.966ZM179.126 132.154C176.241 127.12 169.823 125.378 164.789 128.263C159.755 131.147 158.013 137.566 160.898 142.6C163.782 147.633 170.201 149.376 175.235 146.491C180.268 143.607 182.011 137.188 179.126 132.154Z" fill="url(#paint2_linear_364_1579)"/>
<defs>
<linearGradient id="paint0_linear_364_1579" x1="166.289" y1="21.3328" x2="134.271" y2="110.575" gradientUnits="userSpaceOnUse">
<stop stop-color="#2B75B7"/>
<stop offset="1" stop-color="#29A9E1"/>
</linearGradient>
<linearGradient id="paint1_linear_364_1579" x1="240.606" y1="100.828" x2="188.239" y2="21.7899" gradientUnits="userSpaceOnUse">
<stop stop-color="#8CC63F"/>
<stop offset="1" stop-color="#3C833D"/>
</linearGradient>
<linearGradient id="paint2_linear_364_1579" x1="146.748" y1="127.042" x2="240.098" y2="110.451" gradientUnits="userSpaceOnUse">
<stop stop-color="#F1832C"/>
<stop offset="1" stop-color="#F8EC33"/>
</linearGradient>
</defs>
</svg>
