<svg width="40" height="41" viewBox="0 0 40 41" fill="none" xmlns="http://www.w3.org/2000/svg">
<circle cx="20" cy="20.4745" r="20" fill="#4E6297"/>
<path d="M29 14.2932C29 12.7958 27.6788 11.4745 26.1813 11.4745H14.8186C13.3212 11.4745 12 12.7958 12 14.2932V25.6559C12 27.1533 13.3212 28.4745 14.8186 28.4745H20.544V22.0445H18.4301V19.2258H20.544V18.0808C20.544 16.1429 21.9534 14.4694 23.715 14.4694H26.0052V17.288H23.715C23.4508 17.288 23.1865 17.5523 23.1865 18.0808V19.2258H26.0052V22.0445H23.1865V28.4745H26.1813C27.6788 28.4745 29 27.1533 29 25.6559V14.2932Z" fill="white"/>
</svg>
