<svg width="40" height="41" viewBox="0 0 40 41" fill="none" xmlns="http://www.w3.org/2000/svg">
<circle cx="20" cy="20.4745" r="20" fill="url(#paint0_linear_429_3420)"/>
<path d="M26.5808 12.4745H14.4192C13.0462 12.4745 12 13.5207 12 14.8938V27.0553C12 28.4284 13.0462 29.4745 14.4192 29.4745H26.5808C27.9538 29.4745 29 28.4284 29 27.0553V14.8938C29 13.5207 27.9538 12.4745 26.5808 12.4745ZM20.5 26.0745C23.3115 26.0745 25.6 23.8515 25.6 21.1707C25.6 20.713 25.5346 20.1899 25.4038 19.7976H26.8423V26.7284C26.8423 27.0553 26.5808 27.3822 26.1885 27.3822H14.8115C14.4846 27.3822 14.1577 27.1207 14.1577 26.7284V19.7322H15.6615C15.5308 20.1899 15.4654 20.6476 15.4654 21.1053C15.4 23.8515 17.6885 26.0745 20.5 26.0745ZM20.5 24.113C18.6692 24.113 17.2308 22.6745 17.2308 20.9092C17.2308 19.1438 18.6692 17.7053 20.5 17.7053C22.3308 17.7053 23.7692 19.1438 23.7692 20.9092C23.7692 22.7399 22.3308 24.113 20.5 24.113ZM26.7769 17.1169C26.7769 17.5092 26.45 17.8361 26.0577 17.8361H24.2269C23.8346 17.8361 23.5077 17.5092 23.5077 17.1169V15.3515C23.5077 14.9592 23.8346 14.6322 24.2269 14.6322H26.0577C26.45 14.6322 26.7769 14.9592 26.7769 15.3515V17.1169Z" fill="white"/>
<defs>
<linearGradient id="paint0_linear_429_3420" x1="8.5" y1="35.9745" x2="35" y2="8.47455" gradientUnits="userSpaceOnUse">
<stop stop-color="#EEA054"/>
<stop offset="0.502762" stop-color="#D64763"/>
<stop offset="1" stop-color="#B62A99"/>
</linearGradient>
</defs>
</svg>
