<svg width="40" height="41" viewBox="0 0 40 41" fill="none" xmlns="http://www.w3.org/2000/svg">
<circle cx="20" cy="20.4745" r="20" fill="#2878B7"/>
<path d="M28 21.2189V26.7346H24.7713V21.5553C24.7713 20.2772 24.3004 19.4028 23.157 19.4028C22.2825 19.4028 21.7444 20.0082 21.5426 20.5463C21.4753 20.7481 21.4081 21.0171 21.4081 21.3535V26.7346H18.1794C18.1794 26.7346 18.2466 17.9902 18.1794 17.1158H21.4081V18.4611C21.8117 17.7885 22.6188 16.8467 24.3004 16.8467C26.3856 16.8467 28 18.2593 28 21.2189ZM14.8161 12.4745C13.7399 12.4745 13 13.2145 13 14.1562C13 15.0979 13.6726 15.8378 14.7489 15.8378C15.8924 15.8378 16.565 15.0979 16.565 14.1562C16.6323 13.1472 15.9596 12.4745 14.8161 12.4745ZM13.2018 26.7346H16.4305V17.1158H13.2018V26.7346Z" fill="white"/>
</svg>
