<svg width="257" height="91" viewBox="0 0 257 91" fill="none" xmlns="http://www.w3.org/2000/svg">
<g clip-path="url(#clip0_429_3415)">
<path fill-rule="evenodd" clip-rule="evenodd" d="M3.42144 44.2124C2.28659 41.8548 0.132608 36.9286 0.00594769 32.4167C-0.238853 23.6962 7.10146 13.6024 16.7902 10.582C26.4327 7.57604 37.0915 11.5634 42.9239 19.6448C42.9905 19.7371 42.8751 19.8431 42.7851 19.7734C42.0753 19.2236 41.4179 18.7104 40.804 18.2311C35.6807 14.2315 33.5874 12.5973 29.3278 11.7745C29.2443 11.7584 29.1796 11.8482 29.222 11.9219C29.3958 12.2237 29.5592 12.5025 29.7123 12.7636C30.8457 14.6972 31.4125 15.664 31.4125 17.8624C31.4125 19.3258 30.6561 21.3108 29.813 23.5234C28.4112 27.2021 26.7696 31.5103 27.9654 35.0977C28.7098 37.703 30.1774 41.3932 35.1799 42.3026C35.2851 42.3217 35.2957 42.468 35.1918 42.4933C31.2745 43.4501 24.4862 42.1674 21.0385 34.2416C20.5882 33.168 20.313 30.2283 20.2372 29.3258C20.2295 29.2335 20.1131 29.1987 20.0589 29.2738C19.1133 30.5852 14.1856 37.6265 13.3669 43.065C12.8013 46.8223 13.6148 49.9923 14.3929 53.0245C14.7627 54.4655 15.1246 55.8754 15.3266 57.3025C15.3395 57.3938 15.2327 57.45 15.1648 57.3876C10.3337 52.9526 9.21695 45.1318 9.56195 39.003C9.90939 32.8307 13.1002 26.1913 14.0283 25.7044C14.0409 25.6978 14.0523 25.6959 14.0665 25.696C14.1904 25.696 14.3232 25.6969 14.464 25.6978C16.7676 25.7128 21.2332 25.7418 24.247 22.6314C27.4555 19.3407 26.4271 14.8123 24.5966 13.2733C22.7661 11.7343 19.6551 11.1629 14.9506 13.6024C10.4455 15.9385 4.79305 20.7121 2.56908 27.691C0.718347 33.4986 2.40181 39.7287 3.48939 43.7536C3.52569 43.8879 3.56133 44.0198 3.59615 44.1492C3.62732 44.2649 3.47344 44.3204 3.42144 44.2124ZM18.9291 23.8862C21.8905 23.8862 24.2912 21.4855 24.2912 18.5241C24.2912 15.5627 21.8905 13.162 18.9291 13.162C15.9677 13.162 13.567 15.5627 13.567 18.5241C13.567 21.4855 15.9677 23.8862 18.9291 23.8862Z" fill="url(#paint0_linear_429_3415)"/>
<path fill-rule="evenodd" clip-rule="evenodd" d="M56.1476 10.6382C58.7158 11.1389 63.952 12.3592 67.6436 14.9565C74.7786 19.9762 78.4773 31.8962 75.1027 41.4673C71.7442 50.9928 62.1733 57.1497 52.2084 56.99C52.0945 56.9882 52.0786 56.8323 52.1883 56.8019C53.0535 56.5619 53.858 56.3421 54.6093 56.1367C60.879 54.4232 63.4407 53.7231 66.6478 50.8017C66.7107 50.7444 66.6775 50.6388 66.593 50.6287C66.2472 50.5874 65.9261 50.5517 65.6252 50.5181C63.3977 50.27 62.2839 50.1459 60.5221 48.8309C59.3493 47.9556 58.211 46.1622 56.9421 44.1631C54.8324 40.8394 52.3618 36.9469 48.7716 35.7595C46.2385 34.7977 42.4033 33.7667 38.6824 37.2317C38.6041 37.3046 38.4806 37.2256 38.5224 37.1271C40.0987 33.4155 45.187 28.7426 53.6009 30.7203C54.7306 31.0016 57.2511 32.5394 58.0197 33.0185C58.0983 33.0675 58.1958 32.995 58.168 32.9067C57.6827 31.3645 54.9872 23.2038 51.1185 19.2948C48.4457 16.5941 45.4187 15.35 42.5232 14.1599C41.1472 13.5944 39.8009 13.0411 38.5364 12.3494C38.4555 12.3052 38.4744 12.1859 38.565 12.1688C45.0088 10.9499 51.9444 14.7328 56.6496 18.6751C61.3882 22.6454 64.8005 29.1737 64.6356 30.2087C64.6333 30.2228 64.628 30.233 64.6195 30.2445C64.5453 30.3437 64.4652 30.4495 64.3803 30.5619C62.9904 32.399 60.2962 35.9603 60.9862 40.236C61.7043 44.7756 65.9484 46.66 68.2766 46.1136C70.6048 45.5672 72.9236 43.4157 73.7825 38.1864C74.605 33.1788 74.1603 25.7937 69.8977 19.8371C66.3504 14.8802 60.3507 12.5029 56.4747 10.9671C56.3453 10.9158 56.2183 10.8655 56.0938 10.8161C55.9824 10.7718 56.0299 10.6153 56.1476 10.6382ZM63.1614 35.2238C61.3901 37.597 61.8781 40.9569 64.2513 42.7282C66.6246 44.4995 69.9844 44.0115 71.7557 41.6382C73.527 39.265 73.0391 35.9051 70.6658 34.1338C68.2925 32.3625 64.9327 32.8505 63.1614 35.2238Z" fill="url(#paint1_linear_429_3415)"/>
<path fill-rule="evenodd" clip-rule="evenodd" d="M61.3063 70.7623C59.825 72.9192 56.6219 77.2373 52.7701 79.5906C45.3256 84.1388 32.9183 82.7887 25.4805 75.8842C18.0781 69.0125 16.2381 57.7821 20.35 48.7036C20.397 48.5999 20.5463 48.6473 20.5306 48.7601C20.4064 49.6493 20.288 50.4748 20.1774 51.2457C19.2545 57.6795 18.8774 60.3083 20.2814 64.4131C20.3089 64.4936 20.419 64.5051 20.4619 64.4317C20.6374 64.1308 20.798 63.8504 20.9485 63.5878C22.0625 61.643 22.6196 60.6706 24.527 59.5775C25.7967 58.8499 27.895 58.5192 30.2339 58.1506C34.1227 57.5378 38.6768 56.8201 41.1948 53.9989C43.0851 52.0578 45.5572 48.9496 43.859 44.1571C43.8233 44.0563 43.9449 43.9744 44.0186 44.0519C46.7964 46.975 49.0586 53.5026 43.8962 60.4346C43.1885 61.3591 40.7747 63.0595 40.0294 63.574C39.9531 63.6266 39.9808 63.7449 40.0729 63.7545C41.6809 63.923 50.2402 64.6975 55.3659 62.7038C58.9072 61.3264 61.253 59.0445 63.497 56.8617C64.5634 55.8244 65.6068 54.8094 66.7445 53.9246C66.8173 53.868 66.9192 53.9328 66.8988 54.0227C65.4529 60.4194 59.2225 65.2768 53.7334 68.0247C48.2054 70.7921 40.8583 71.3248 39.9745 70.7616C39.9624 70.754 39.9551 70.745 39.948 70.7326C39.8865 70.6251 39.8213 70.5095 39.7521 70.3869C38.6197 68.3807 36.4246 64.4918 32.2275 63.4234C27.777 62.2758 24.3594 65.4195 23.9342 67.7729C23.509 70.1263 24.5601 73.1097 29.0157 75.9785C33.2825 78.7258 40.2346 81.2566 47.3955 79.7163C53.3547 78.4345 57.9231 73.8763 60.8745 70.9315C60.973 70.8332 61.0697 70.7367 61.1646 70.6422C61.2495 70.5576 61.3742 70.6635 61.3063 70.7623ZM35.9602 67.4135C34.4878 64.8441 31.2112 63.9548 28.6418 65.4272C26.0724 66.8996 25.1831 70.1762 26.6555 72.7456C28.1279 75.315 31.4045 76.2043 33.9739 74.7319C36.5433 73.2595 37.4326 69.9829 35.9602 67.4135Z" fill="url(#paint2_linear_429_3415)"/>
<line x1="91.3999" y1="9.58205" x2="91.3999" y2="82.6325" stroke="#535353"/>
<path d="M245.591 76.1626C245.095 76.1626 244.626 76.0431 244.185 75.8041C243.762 75.5651 243.413 75.2433 243.137 74.8389C242.879 74.4344 242.751 73.984 242.751 73.4876C242.751 72.9913 242.925 72.55 243.275 72.164C243.624 71.7779 244.084 71.5849 244.654 71.5849C245.242 71.5849 245.692 71.7503 246.005 72.0812C246.336 72.4305 246.501 72.8534 246.501 73.3498C246.501 73.6071 246.464 73.8002 246.391 73.9289C246.317 74.0575 246.235 74.1587 246.143 74.2322C246.069 74.3241 246.032 74.4436 246.032 74.5907C246.032 74.7378 246.069 74.8665 246.143 74.9768C246.235 75.0871 246.354 75.1422 246.501 75.1422C246.703 75.1422 246.961 74.9308 247.273 74.508C247.586 74.0851 247.935 73.3957 248.321 72.4397L253.671 59.0927C253.763 58.8353 253.763 58.6331 253.671 58.486C253.579 58.339 253.414 58.2654 253.175 58.2654H252.375V57.3554H256.374V58.2654C256.153 58.2654 255.941 58.3022 255.739 58.3757C255.555 58.4309 255.381 58.5688 255.215 58.7894C255.05 58.9916 254.866 59.3225 254.664 59.7821L250.389 69.9854C250.059 70.7759 249.746 71.5389 249.452 72.2743C249.176 73.028 248.864 73.6899 248.514 74.2598C248.183 74.8481 247.788 75.3077 247.328 75.6386C246.869 75.9879 246.29 76.1626 245.591 76.1626ZM249.121 71.5297L244.102 59.3961C243.973 59.0468 243.845 58.7986 243.716 58.6515C243.587 58.486 243.413 58.3849 243.192 58.3482C242.971 58.293 242.64 58.2654 242.199 58.2654V57.3554H250.003V58.2654H249.204C248.983 58.2654 248.818 58.3482 248.707 58.5136C248.597 58.6791 248.606 58.9365 248.735 59.2858L251.051 65.4077H251.768L249.121 71.5297Z" fill="black"/>
<path d="M238.599 70.6473C237.772 70.6473 237.064 70.5094 236.476 70.2336C235.887 69.9579 235.437 69.4891 235.124 68.8272C234.83 68.147 234.683 67.2278 234.683 66.0696V58.2654H233.001V57.3554C233.792 57.2635 234.545 56.951 235.262 56.4178C235.998 55.8847 236.632 55.232 237.165 54.4599C237.717 53.6877 238.103 52.9064 238.323 52.1159H239.068V57.3554H241.605V58.2654H239.068V66.4281C239.068 67.2921 239.16 67.9448 239.344 68.386C239.527 68.8272 239.877 69.0478 240.391 69.0478C240.796 69.0478 241.145 68.9559 241.439 68.7721C241.752 68.5698 241.945 68.432 242.018 68.3584L242.598 69.2133C242.395 69.3604 242.129 69.5534 241.798 69.7924C241.485 70.013 241.072 70.206 240.557 70.3715C240.042 70.5553 239.39 70.6473 238.599 70.6473Z" fill="black"/>
<path d="M224.47 70.3164V69.4063C224.985 69.4063 225.362 69.3788 225.601 69.3236C225.858 69.2501 226.024 69.1214 226.097 68.9375C226.189 68.7353 226.235 68.432 226.235 68.0275V59.7546C226.235 59.3869 226.18 59.1479 226.07 59.0376C225.978 58.9089 225.766 58.8446 225.435 58.8446H224.47V57.9345L229.103 57.2175H230.62V68.0275C230.62 68.4136 230.657 68.7077 230.73 68.91C230.804 69.0938 230.941 69.2225 231.144 69.296C231.364 69.3696 231.686 69.4063 232.109 69.4063V70.3164H224.47ZM228.303 55.8939C227.642 55.8939 227.044 55.6549 226.511 55.1769C225.978 54.6989 225.711 54.1198 225.711 53.4396C225.711 52.7593 225.978 52.1802 226.511 51.7022C227.044 51.2243 227.642 50.9853 228.303 50.9853C228.745 50.9853 229.158 51.0956 229.544 51.3162C229.93 51.5368 230.243 51.8309 230.482 52.1986C230.739 52.5663 230.868 52.98 230.868 53.4396C230.868 54.1198 230.601 54.6989 230.068 55.1769C229.553 55.6549 228.965 55.8939 228.303 55.8939Z" fill="black"/>
<path d="M216.006 70.3163V69.4063C216.411 69.4063 216.705 69.3787 216.889 69.3236C217.073 69.2501 217.192 69.1214 217.247 68.9375C217.302 68.7537 217.33 68.4963 217.33 68.1654V61.547C217.33 60.8117 217.256 60.2325 217.109 59.8097C216.981 59.3869 216.778 59.0927 216.503 58.9273C216.245 58.7434 215.924 58.6515 215.538 58.6515C215.078 58.6515 214.664 58.7802 214.297 59.0376C213.947 59.295 213.488 59.7086 212.918 60.2785L212.752 59.5064C213.01 59.1755 213.331 58.817 213.717 58.4309C214.122 58.0448 214.627 57.7139 215.234 57.4381C215.859 57.1624 216.631 57.0245 217.551 57.0245C218.819 57.0245 219.83 57.3738 220.584 58.0724C221.338 58.7526 221.715 59.9108 221.715 61.547V68.0275C221.715 68.4136 221.751 68.7077 221.825 68.9099C221.898 69.0938 222.046 69.2225 222.266 69.296C222.505 69.3695 222.854 69.4063 223.314 69.4063V70.3163H216.006ZM207.099 70.3163V69.4063C207.614 69.4063 207.991 69.3787 208.23 69.3236C208.487 69.2501 208.653 69.1214 208.726 68.9375C208.818 68.7353 208.864 68.4319 208.864 68.0275V59.7546C208.864 59.3869 208.809 59.1479 208.699 59.0376C208.607 58.9089 208.395 58.8445 208.064 58.8445H207.099V57.9345L211.649 57.2175H213.111V59.0376H213.249V68.0275C213.249 68.4136 213.285 68.7077 213.359 68.9099C213.433 69.0938 213.57 69.2225 213.773 69.296C213.993 69.3695 214.315 69.4063 214.738 69.4063V70.3163H207.099Z" fill="black"/>
<path d="M196.278 70.6473C195.009 70.6473 193.998 70.298 193.244 69.5994C192.49 68.9008 192.114 67.7425 192.114 66.1247V59.7546C192.114 59.3869 192.058 59.1479 191.948 59.0376C191.856 58.9089 191.645 58.8445 191.314 58.8445H190.349V57.9345L194.981 57.2175H196.498V66.1247C196.498 66.8601 196.563 67.4392 196.691 67.862C196.838 68.2849 197.05 68.5882 197.325 68.7721C197.601 68.9375 197.923 69.0203 198.291 69.0203C198.603 69.0203 198.888 68.9651 199.146 68.8548C199.403 68.7445 199.669 68.5698 199.945 68.3308C200.221 68.0735 200.543 67.7609 200.91 67.3932L201.076 68.1654C200.818 68.4963 200.488 68.8548 200.083 69.2409C199.697 69.6269 199.191 69.9578 198.566 70.2336C197.96 70.5094 197.197 70.6473 196.278 70.6473ZM200.717 70.3163V68.6342H200.579V59.7546C200.579 59.3869 200.524 59.1479 200.414 59.0376C200.322 58.9089 200.111 58.8445 199.78 58.8445H198.815V57.9345L203.447 57.2175H204.964V68.5515C204.964 68.8088 205.001 69.0019 205.074 69.1306C205.148 69.2592 205.295 69.342 205.516 69.3787C205.755 69.3971 206.104 69.4063 206.564 69.4063V70.3163H200.717Z" fill="black"/>
<path d="M182.46 70.3163V69.4063C182.865 69.4063 183.159 69.3787 183.343 69.3236C183.545 69.2501 183.673 69.1214 183.729 68.9375C183.802 68.7537 183.839 68.4963 183.839 68.1654V61.547C183.839 60.83 183.756 60.2601 183.591 59.8373C183.444 59.4144 183.223 59.1111 182.929 58.9273C182.653 58.7434 182.322 58.6515 181.936 58.6515C181.532 58.6515 181.182 58.7434 180.888 58.9273C180.594 59.1111 180.355 59.3685 180.171 59.6994C179.987 60.0303 179.85 60.4164 179.758 60.8576L178.848 60.5543C179.197 59.3777 179.758 58.4952 180.53 57.9069C181.302 57.3186 182.368 57.0245 183.729 57.0245C185.126 57.0245 186.22 57.3646 187.01 58.0448C187.819 58.725 188.224 59.8924 188.224 61.547V68.0275C188.224 68.4136 188.26 68.7077 188.334 68.9099C188.407 69.0938 188.555 69.2225 188.775 69.296C189.014 69.3695 189.363 69.4063 189.823 69.4063V70.3163H182.46ZM165.142 70.3163V69.4063C165.657 69.4063 166.034 69.3787 166.273 69.3236C166.53 69.2501 166.696 69.1214 166.769 68.9375C166.861 68.7353 166.907 68.4319 166.907 68.0275V59.7546C166.907 59.3869 166.852 59.1479 166.742 59.0376C166.65 58.9089 166.438 58.8445 166.107 58.8445H165.142V57.9345L169.692 57.2175H171.154V59.0376H171.292V68.0275C171.292 68.4136 171.328 68.7077 171.402 68.9099C171.475 69.0938 171.613 69.2225 171.816 69.296C172.036 69.3695 172.358 69.4063 172.781 69.4063V70.3163H165.142ZM174.049 70.3163V69.4063C174.454 69.4063 174.748 69.3787 174.932 69.3236C175.116 69.2501 175.235 69.1214 175.29 68.9375C175.345 68.7537 175.373 68.4963 175.373 68.1654V61.547C175.373 60.8117 175.299 60.2325 175.152 59.8097C175.024 59.3869 174.821 59.0927 174.546 58.9273C174.288 58.7434 173.967 58.6515 173.58 58.6515C173.268 58.6515 172.983 58.7067 172.726 58.817C172.468 58.9273 172.202 59.1019 171.926 59.3409C171.669 59.5799 171.347 59.8924 170.961 60.2785L170.795 59.5064C171.089 59.1387 171.439 58.771 171.843 58.4033C172.248 58.0172 172.753 57.6955 173.36 57.4381C173.967 57.1624 174.711 57.0245 175.594 57.0245C176.531 57.0245 177.303 57.1899 177.91 57.5209C178.535 57.8334 178.995 58.2654 179.289 58.817C179.601 59.3501 179.758 59.966 179.758 60.6646V68.0275C179.758 68.4136 179.785 68.7077 179.84 68.9099C179.914 69.0938 180.052 69.2225 180.254 69.296C180.456 69.3695 180.769 69.4063 181.192 69.4063V70.3163H174.049Z" fill="black"/>
<path d="M157.254 70.3163V69.4063C157.658 69.4063 157.952 69.3787 158.136 69.3236C158.338 69.2501 158.467 69.1214 158.522 68.9375C158.596 68.7537 158.632 68.4963 158.632 68.1654V61.547C158.632 60.83 158.55 60.2601 158.384 59.8373C158.237 59.4144 158.017 59.1111 157.722 58.9273C157.447 58.7434 157.116 58.6515 156.73 58.6515C156.325 58.6515 155.976 58.7434 155.682 58.9273C155.388 59.1111 155.149 59.3685 154.965 59.6994C154.781 60.0303 154.643 60.4164 154.551 60.8576L153.641 60.5543C153.99 59.3777 154.551 58.4952 155.323 57.9069C156.095 57.3186 157.162 57.0245 158.522 57.0245C159.919 57.0245 161.013 57.3646 161.804 58.0448C162.613 58.725 163.017 59.8924 163.017 61.547V68.0275C163.017 68.4136 163.054 68.7077 163.127 68.9099C163.201 69.0938 163.348 69.2225 163.569 69.296C163.808 69.3695 164.157 69.4063 164.616 69.4063V70.3163H157.254ZM139.936 70.3163V69.4063C140.45 69.4063 140.827 69.3787 141.066 69.3236C141.324 69.2501 141.489 69.1214 141.563 68.9375C141.654 68.7353 141.7 68.4319 141.7 68.0275V59.7546C141.7 59.3869 141.645 59.1479 141.535 59.0376C141.443 58.9089 141.232 58.8445 140.901 58.8445H139.936V57.9345L144.486 57.2175H145.947V59.0376H146.085V68.0275C146.085 68.4136 146.122 68.7077 146.195 68.9099C146.269 69.0938 146.407 69.2225 146.609 69.296C146.83 69.3695 147.151 69.4063 147.574 69.4063V70.3163H139.936ZM148.843 70.3163V69.4063C149.247 69.4063 149.541 69.3787 149.725 69.3236C149.909 69.2501 150.029 69.1214 150.084 68.9375C150.139 68.7537 150.166 68.4963 150.166 68.1654V61.547C150.166 60.8117 150.093 60.2325 149.946 59.8097C149.817 59.3869 149.615 59.0927 149.339 58.9273C149.082 58.7434 148.76 58.6515 148.374 58.6515C148.061 58.6515 147.776 58.7067 147.519 58.817C147.262 58.9273 146.995 59.1019 146.719 59.3409C146.462 59.5799 146.14 59.8924 145.754 60.2785L145.589 59.5064C145.883 59.1387 146.232 58.771 146.637 58.4033C147.041 58.0172 147.547 57.6955 148.153 57.4381C148.76 57.1624 149.505 57.0245 150.387 57.0245C151.325 57.0245 152.097 57.1899 152.703 57.5209C153.329 57.8334 153.788 58.2654 154.082 58.817C154.395 59.3501 154.551 59.966 154.551 60.6646V68.0275C154.551 68.4136 154.579 68.7077 154.634 68.9099C154.707 69.0938 154.845 69.2225 155.047 69.296C155.25 69.3695 155.562 69.4063 155.985 69.4063V70.3163H148.843Z" fill="black"/>
<path d="M131.545 70.6473C129.155 70.6473 127.372 70.0865 126.195 68.9651C125.018 67.8437 124.43 66.1431 124.43 63.8634C124.43 61.547 125.028 59.8281 126.223 58.7067C127.418 57.5852 129.21 57.0245 131.6 57.0245C133.972 57.0245 135.737 57.5852 136.895 58.7067C138.053 59.8097 138.632 61.5103 138.632 63.8083C138.632 66.1247 138.053 67.8437 136.895 68.9651C135.737 70.0865 133.953 70.6473 131.545 70.6473ZM131.572 69.7648C132.473 69.7648 133.117 69.2868 133.503 68.3308C133.889 67.3749 134.064 65.8673 134.027 63.8083C134.008 61.786 133.815 60.2969 133.448 59.3409C133.08 58.3849 132.437 57.9069 131.517 57.9069C130.58 57.9069 129.927 58.4401 129.559 59.5064C129.21 60.5543 129.035 62.0342 129.035 63.9462C129.035 65.9868 129.219 67.4668 129.587 68.386C129.955 69.3052 130.616 69.7648 131.572 69.7648Z" fill="black"/>
<path d="M116.361 70.6473C114.468 70.6473 112.804 70.3072 111.37 69.6269C109.954 68.9283 108.851 67.8988 108.061 66.5384C107.27 65.1596 106.875 63.4498 106.875 61.4092C106.875 59.3501 107.27 57.6128 108.061 56.1972C108.851 54.7632 109.973 53.6694 111.425 52.9156C112.877 52.1618 114.596 51.785 116.582 51.785C117.667 51.785 118.521 51.8677 119.147 52.0332C119.772 52.1986 120.259 52.3733 120.608 52.5571C120.976 52.7226 121.297 52.8053 121.573 52.8053C121.72 52.8053 121.867 52.7685 122.014 52.695C122.162 52.6215 122.263 52.5112 122.318 52.3641L122.401 52.1159H123.2L123.476 57.3278H122.428C122.299 56.6109 122.088 55.9674 121.794 55.3975C121.5 54.8276 121.132 54.3404 120.691 53.9359C120.25 53.5315 119.744 53.2281 119.174 53.0259C118.604 52.8053 117.979 52.695 117.299 52.695C116.343 52.695 115.543 52.8972 114.9 53.3017C114.256 53.6877 113.732 54.2025 113.328 54.846C112.923 55.4894 112.611 56.1972 112.39 56.9693C112.188 57.7415 112.05 58.5136 111.977 59.2858C111.903 60.0395 111.866 60.7197 111.866 61.3264C111.866 62.5766 111.977 63.7164 112.197 64.7459C112.418 65.7754 112.749 66.6671 113.19 67.4208C113.65 68.1562 114.22 68.7261 114.9 69.1306C115.598 69.535 116.416 69.7372 117.354 69.7372C118.053 69.7372 118.696 69.6361 119.284 69.4339C119.873 69.2317 120.397 68.9467 120.856 68.579C121.334 68.193 121.739 67.7517 122.07 67.2554C122.419 66.7406 122.695 66.1891 122.897 65.6008L123.724 65.9317C123.485 66.6119 123.173 67.2462 122.787 67.8345C122.401 68.4044 121.913 68.9008 121.325 69.3236C120.755 69.7464 120.057 70.0774 119.229 70.3163C118.42 70.537 117.464 70.6473 116.361 70.6473Z" fill="black"/>
<path d="M180.896 35.0798V34.1697C181.411 34.1697 181.788 34.1422 182.027 34.087C182.284 34.0135 182.449 33.8848 182.523 33.7009C182.615 33.4987 182.661 33.1954 182.661 32.7909V24.518C182.661 24.1503 182.606 23.9113 182.495 23.801C182.404 23.6723 182.192 23.608 181.861 23.608H180.896V22.6979L185.446 21.981H186.908V24.6007H187.046V32.7909C187.046 33.177 187.092 33.4711 187.183 33.6734C187.294 33.8572 187.487 33.9859 187.763 34.0594C188.057 34.133 188.48 34.1697 189.031 34.1697V35.0798H180.896ZM186.191 27.6893V26.6965C186.246 26.4759 186.356 26.1082 186.522 25.5935C186.705 25.0787 186.963 24.5364 187.294 23.9665C187.625 23.3965 188.047 22.9094 188.562 22.5049C189.077 22.0821 189.72 21.8707 190.493 21.8707C191.228 21.8707 191.825 22.0913 192.285 22.5325C192.763 22.9553 193.002 23.5436 193.002 24.2974C193.002 24.8489 192.846 25.3637 192.533 25.8417C192.221 26.3197 191.678 26.5586 190.906 26.5586C190.336 26.5586 189.858 26.4116 189.472 26.1174C189.105 25.8049 188.921 25.3637 188.921 24.7938C188.921 24.5364 188.948 24.3433 189.003 24.2147C189.077 24.086 189.141 23.9848 189.197 23.9113C189.252 23.8378 189.279 23.7734 189.279 23.7183C189.279 23.6631 189.252 23.6264 189.197 23.608C189.141 23.5712 189.077 23.5528 189.003 23.5528C188.783 23.5528 188.553 23.6907 188.314 23.9665C188.093 24.2422 187.882 24.6007 187.68 25.0419C187.496 25.4832 187.34 25.9428 187.211 26.4208C187.101 26.8804 187.046 27.3032 187.046 27.6893H186.191Z" fill="black"/>
<path d="M172.506 35.4107C170.116 35.4107 168.333 34.85 167.156 33.7285C165.979 32.6071 165.391 30.9065 165.391 28.6269C165.391 26.3105 165.989 24.5915 167.184 23.4701C168.379 22.3486 170.171 21.7879 172.561 21.7879C174.933 21.7879 176.697 22.3486 177.856 23.4701C179.014 24.5731 179.593 26.2737 179.593 28.5717C179.593 30.8881 179.014 32.6071 177.856 33.7285C176.697 34.85 174.914 35.4107 172.506 35.4107ZM172.533 34.5282C173.434 34.5282 174.078 34.0502 174.464 33.0943C174.85 32.1383 175.024 30.6308 174.988 28.5717C174.969 26.5495 174.776 25.0603 174.409 24.1043C174.041 23.1484 173.397 22.6704 172.478 22.6704C171.541 22.6704 170.888 23.2035 170.52 24.2698C170.171 25.3177 169.996 26.7976 169.996 28.7096C169.996 30.7503 170.18 32.2302 170.548 33.1494C170.916 34.0686 171.577 34.5282 172.533 34.5282Z" fill="black"/>
<path d="M150.744 35.0798V34.1698C151.314 34.1698 151.727 34.133 151.985 34.0594C152.26 33.9859 152.435 33.8388 152.509 33.6182C152.6 33.3976 152.646 33.0667 152.646 32.6255V19.3612C152.646 18.9016 152.6 18.5615 152.509 18.3409C152.435 18.1203 152.26 17.9732 151.985 17.8996C151.727 17.8261 151.314 17.7893 150.744 17.7893V16.8793H165.056V21.2088H163.925C163.686 20.2712 163.401 19.5634 163.07 19.0854C162.739 18.6074 162.307 18.2949 161.774 18.1478C161.259 17.9824 160.588 17.8996 159.761 17.8996H158.41C158.042 17.8996 157.776 17.9732 157.61 18.1203C157.463 18.2489 157.39 18.4879 157.39 18.8372V25.235H160.258C160.736 25.235 161.103 25.1706 161.361 25.0419C161.636 24.9133 161.839 24.6651 161.967 24.2974C162.114 23.9297 162.225 23.3966 162.298 22.6979H163.208V29.013H162.298C162.225 28.296 162.114 27.7536 161.967 27.3859C161.839 27.0183 161.636 26.7701 161.361 26.6414C161.103 26.5127 160.736 26.4483 160.258 26.4483H157.39V32.6255C157.39 33.0483 157.426 33.37 157.5 33.5906C157.592 33.8113 157.766 33.9675 158.024 34.0594C158.3 34.133 158.722 34.1698 159.292 34.1698V35.0798H150.744Z" fill="black"/>
<path d="M135.655 35.0798V34.1697C136.17 34.1697 136.546 34.1422 136.785 34.087C137.043 34.0135 137.208 33.8756 137.282 33.6734C137.374 33.4711 137.42 33.177 137.42 32.7909V18.5891C137.42 18.2214 137.365 17.9824 137.254 17.8721C137.162 17.7434 136.951 17.679 136.62 17.679H135.655V16.769L140.343 16.052H141.804V32.7909C141.804 33.177 141.841 33.4711 141.915 33.6734C141.988 33.8572 142.126 33.9859 142.328 34.0594C142.549 34.133 142.871 34.1697 143.293 34.1697V35.0798H135.655Z" fill="black"/>
<path d="M126.795 35.0798V34.1697C127.31 34.1697 127.687 34.1422 127.926 34.087C128.183 34.0135 128.348 33.8756 128.422 33.6734C128.514 33.4711 128.56 33.177 128.56 32.7909V18.5891C128.56 18.2214 128.505 17.9824 128.394 17.8721C128.302 17.7434 128.091 17.679 127.76 17.679H126.795V16.769L131.483 16.052H132.944V32.7909C132.944 33.177 132.981 33.4711 133.055 33.6734C133.128 33.8572 133.266 33.9859 133.468 34.0594C133.689 34.133 134.011 34.1697 134.434 34.1697V35.0798H126.795Z" fill="black"/>
<path d="M106.186 35.0798V34.1698C106.7 34.1698 107.105 34.1422 107.399 34.087C107.711 34.0135 107.96 33.8756 108.143 33.6734C108.346 33.4528 108.539 33.1127 108.723 32.653L115.01 16.8793H117.85L123.697 32.7909C123.862 33.2138 124.009 33.5263 124.138 33.7285C124.267 33.9124 124.46 34.0319 124.717 34.087C124.974 34.1422 125.351 34.1698 125.848 34.1698V35.0798H117.023V34.1698H118.374C118.742 34.1698 118.972 34.0778 119.064 33.894C119.156 33.6918 119.128 33.3976 118.981 33.0115L114.624 21.2364H114.541L110.157 33.0943C110.028 33.4803 110.019 33.7561 110.129 33.9216C110.239 34.087 110.487 34.1698 110.874 34.1698H111.921V35.0798H106.186ZM111.204 28.7923V27.7169H117.878V28.7923H111.204Z" fill="black"/>
</g>
<defs>
<linearGradient id="paint0_linear_429_3415" x1="29.2949" y1="10.8431" x2="12.9465" y2="56.3016" gradientUnits="userSpaceOnUse">
<stop stop-color="#2B75B7"/>
<stop offset="1" stop-color="#29A9E1"/>
</linearGradient>
<linearGradient id="paint1_linear_429_3415" x1="67.414" y1="51.3324" x2="40.7621" y2="11.0407" gradientUnits="userSpaceOnUse">
<stop stop-color="#8CC63F"/>
<stop offset="1" stop-color="#3C833D"/>
</linearGradient>
<linearGradient id="paint2_linear_429_3415" x1="19.4896" y1="64.9049" x2="67.0595" y2="56.4873" gradientUnits="userSpaceOnUse">
<stop stop-color="#F1832C"/>
<stop offset="1" stop-color="#F8EC33"/>
</linearGradient>
<clipPath id="clip0_429_3415">
<rect width="257" height="90.9491" fill="white"/>
</clipPath>
</defs>
</svg>
