<svg width="360" height="360" viewBox="0 0 360 360" fill="none" xmlns="http://www.w3.org/2000/svg">
<rect width="360" height="360" fill="white"/>
<path d="M19.4595 19.4595H29.1892V29.1892H19.4595V19.4595Z" fill="black"/>
<path d="M29.1892 19.4595H38.9189V29.1892H29.1892V19.4595Z" fill="black"/>
<path d="M38.9189 19.4595H48.6487V29.1892H38.9189V19.4595Z" fill="black"/>
<path d="M48.6487 19.4595H58.3784V29.1892H48.6487V19.4595Z" fill="black"/>
<path d="M58.3784 19.4595H68.1081V29.1892H58.3784V19.4595Z" fill="black"/>
<path d="M68.1081 19.4595H77.8379V29.1892H68.1081V19.4595Z" fill="black"/>
<path d="M77.8379 19.4595H87.5676V29.1892H77.8379V19.4595Z" fill="black"/>
<path d="M107.027 19.4595H116.757V29.1892H107.027V19.4595Z" fill="black"/>
<path d="M126.487 19.4595H136.216V29.1892H126.487V19.4595Z" fill="black"/>
<path d="M136.216 19.4595H145.946V29.1892H136.216V19.4595Z" fill="black"/>
<path d="M155.676 19.4595H165.405V29.1892H155.676V19.4595Z" fill="black"/>
<path d="M175.135 19.4595H184.865V29.1892H175.135V19.4595Z" fill="black"/>
<path d="M194.595 19.4595H204.324V29.1892H194.595V19.4595Z" fill="black"/>
<path d="M204.324 19.4595H214.054V29.1892H204.324V19.4595Z" fill="black"/>
<path d="M214.054 19.4595H223.784V29.1892H214.054V19.4595Z" fill="black"/>
<path d="M233.514 19.4595H243.243V29.1892H233.514V19.4595Z" fill="black"/>
<path d="M252.973 19.4595H262.703V29.1892H252.973V19.4595Z" fill="black"/>
<path d="M272.432 19.4595H282.162V29.1892H272.432V19.4595Z" fill="black"/>
<path d="M282.162 19.4595H291.892V29.1892H282.162V19.4595Z" fill="black"/>
<path d="M291.892 19.4595H301.622V29.1892H291.892V19.4595Z" fill="black"/>
<path d="M301.622 19.4595H311.351V29.1892H301.622V19.4595Z" fill="black"/>
<path d="M311.351 19.4595H321.081V29.1892H311.351V19.4595Z" fill="black"/>
<path d="M321.081 19.4595H330.811V29.1892H321.081V19.4595Z" fill="black"/>
<path d="M330.811 19.4595H340.541V29.1892H330.811V19.4595Z" fill="black"/>
<path d="M19.4595 29.1892H29.1892V38.9189H19.4595V29.1892Z" fill="black"/>
<path d="M77.8379 29.1892H87.5676V38.9189H77.8379V29.1892Z" fill="black"/>
<path d="M97.2973 29.1892H107.027V38.9189H97.2973V29.1892Z" fill="black"/>
<path d="M107.027 29.1892H116.757V38.9189H107.027V29.1892Z" fill="black"/>
<path d="M116.757 29.1892H126.487V38.9189H116.757V29.1892Z" fill="black"/>
<path d="M126.487 29.1892H136.216V38.9189H126.487V29.1892Z" fill="black"/>
<path d="M155.676 29.1892H165.405V38.9189H155.676V29.1892Z" fill="black"/>
<path d="M194.595 29.1892H204.324V38.9189H194.595V29.1892Z" fill="black"/>
<path d="M204.324 29.1892H214.054V38.9189H204.324V29.1892Z" fill="black"/>
<path d="M223.784 29.1892H233.514V38.9189H223.784V29.1892Z" fill="black"/>
<path d="M233.514 29.1892H243.243V38.9189H233.514V29.1892Z" fill="black"/>
<path d="M272.432 29.1892H282.162V38.9189H272.432V29.1892Z" fill="black"/>
<path d="M330.811 29.1892H340.541V38.9189H330.811V29.1892Z" fill="black"/>
<path d="M19.4595 38.9189H29.1892V48.6487H19.4595V38.9189Z" fill="black"/>
<path d="M38.9189 38.9189H48.6487V48.6487H38.9189V38.9189Z" fill="black"/>
<path d="M48.6487 38.9189H58.3784V48.6487H48.6487V38.9189Z" fill="black"/>
<path d="M58.3784 38.9189H68.1081V48.6487H58.3784V38.9189Z" fill="black"/>
<path d="M77.8379 38.9189H87.5676V48.6487H77.8379V38.9189Z" fill="black"/>
<path d="M97.2973 38.9189H107.027V48.6487H97.2973V38.9189Z" fill="black"/>
<path d="M107.027 38.9189H116.757V48.6487H107.027V38.9189Z" fill="black"/>
<path d="M116.757 38.9189H126.487V48.6487H116.757V38.9189Z" fill="black"/>
<path d="M145.946 38.9189H155.676V48.6487H145.946V38.9189Z" fill="black"/>
<path d="M155.676 38.9189H165.405V48.6487H155.676V38.9189Z" fill="black"/>
<path d="M165.405 38.9189H175.135V48.6487H165.405V38.9189Z" fill="black"/>
<path d="M175.135 38.9189H184.865V48.6487H175.135V38.9189Z" fill="black"/>
<path d="M204.324 38.9189H214.054V48.6487H204.324V38.9189Z" fill="black"/>
<path d="M223.784 38.9189H233.514V48.6487H223.784V38.9189Z" fill="black"/>
<path d="M252.973 38.9189H262.703V48.6487H252.973V38.9189Z" fill="black"/>
<path d="M272.432 38.9189H282.162V48.6487H272.432V38.9189Z" fill="black"/>
<path d="M291.892 38.9189H301.622V48.6487H291.892V38.9189Z" fill="black"/>
<path d="M301.622 38.9189H311.351V48.6487H301.622V38.9189Z" fill="black"/>
<path d="M311.351 38.9189H321.081V48.6487H311.351V38.9189Z" fill="black"/>
<path d="M330.811 38.9189H340.541V48.6487H330.811V38.9189Z" fill="black"/>
<path d="M19.4595 48.6487H29.1892V58.3784H19.4595V48.6487Z" fill="black"/>
<path d="M38.9189 48.6487H48.6487V58.3784H38.9189V48.6487Z" fill="black"/>
<path d="M48.6487 48.6487H58.3784V58.3784H48.6487V48.6487Z" fill="black"/>
<path d="M58.3784 48.6487H68.1081V58.3784H58.3784V48.6487Z" fill="black"/>
<path d="M77.8379 48.6487H87.5676V58.3784H77.8379V48.6487Z" fill="black"/>
<path d="M97.2973 48.6487H107.027V58.3784H97.2973V48.6487Z" fill="black"/>
<path d="M107.027 48.6487H116.757V58.3784H107.027V48.6487Z" fill="black"/>
<path d="M116.757 48.6487H126.487V58.3784H116.757V48.6487Z" fill="black"/>
<path d="M165.405 48.6487H175.135V58.3784H165.405V48.6487Z" fill="black"/>
<path d="M204.324 48.6487H214.054V58.3784H204.324V48.6487Z" fill="black"/>
<path d="M223.784 48.6487H233.514V58.3784H223.784V48.6487Z" fill="black"/>
<path d="M233.514 48.6487H243.243V58.3784H233.514V48.6487Z" fill="black"/>
<path d="M243.243 48.6487H252.973V58.3784H243.243V48.6487Z" fill="black"/>
<path d="M252.973 48.6487H262.703V58.3784H252.973V48.6487Z" fill="black"/>
<path d="M272.432 48.6487H282.162V58.3784H272.432V48.6487Z" fill="black"/>
<path d="M291.892 48.6487H301.622V58.3784H291.892V48.6487Z" fill="black"/>
<path d="M301.622 48.6487H311.351V58.3784H301.622V48.6487Z" fill="black"/>
<path d="M311.351 48.6487H321.081V58.3784H311.351V48.6487Z" fill="black"/>
<path d="M330.811 48.6487H340.541V58.3784H330.811V48.6487Z" fill="black"/>
<path d="M19.4595 58.3784H29.1892V68.1081H19.4595V58.3784Z" fill="black"/>
<path d="M38.9189 58.3784H48.6487V68.1081H38.9189V58.3784Z" fill="black"/>
<path d="M48.6487 58.3784H58.3784V68.1081H48.6487V58.3784Z" fill="black"/>
<path d="M58.3784 58.3784H68.1081V68.1081H58.3784V58.3784Z" fill="black"/>
<path d="M77.8379 58.3784H87.5676V68.1081H77.8379V58.3784Z" fill="black"/>
<path d="M97.2973 58.3784H107.027V68.1081H97.2973V58.3784Z" fill="black"/>
<path d="M107.027 58.3784H116.757V68.1081H107.027V58.3784Z" fill="black"/>
<path d="M116.757 58.3784H126.487V68.1081H116.757V58.3784Z" fill="black"/>
<path d="M126.487 58.3784H136.216V68.1081H126.487V58.3784Z" fill="black"/>
<path d="M155.676 58.3784H165.405V68.1081H155.676V58.3784Z" fill="black"/>
<path d="M165.405 58.3784H175.135V68.1081H165.405V58.3784Z" fill="black"/>
<path d="M175.135 58.3784H184.865V68.1081H175.135V58.3784Z" fill="black"/>
<path d="M184.865 58.3784H194.595V68.1081H184.865V58.3784Z" fill="black"/>
<path d="M194.595 58.3784H204.324V68.1081H194.595V58.3784Z" fill="black"/>
<path d="M204.324 58.3784H214.054V68.1081H204.324V58.3784Z" fill="black"/>
<path d="M233.514 58.3784H243.243V68.1081H233.514V58.3784Z" fill="black"/>
<path d="M243.243 58.3784H252.973V68.1081H243.243V58.3784Z" fill="black"/>
<path d="M252.973 58.3784H262.703V68.1081H252.973V58.3784Z" fill="black"/>
<path d="M272.432 58.3784H282.162V68.1081H272.432V58.3784Z" fill="black"/>
<path d="M291.892 58.3784H301.622V68.1081H291.892V58.3784Z" fill="black"/>
<path d="M301.622 58.3784H311.351V68.1081H301.622V58.3784Z" fill="black"/>
<path d="M311.351 58.3784H321.081V68.1081H311.351V58.3784Z" fill="black"/>
<path d="M330.811 58.3784H340.541V68.1081H330.811V58.3784Z" fill="black"/>
<path d="M19.4595 68.1081H29.1892V77.8379H19.4595V68.1081Z" fill="black"/>
<path d="M77.8379 68.1081H87.5676V77.8379H77.8379V68.1081Z" fill="black"/>
<path d="M97.2973 68.1081H107.027V77.8379H97.2973V68.1081Z" fill="black"/>
<path d="M145.946 68.1081H155.676V77.8379H145.946V68.1081Z" fill="black"/>
<path d="M165.405 68.1081H175.135V77.8379H165.405V68.1081Z" fill="black"/>
<path d="M194.595 68.1081H204.324V77.8379H194.595V68.1081Z" fill="black"/>
<path d="M223.784 68.1081H233.514V77.8379H223.784V68.1081Z" fill="black"/>
<path d="M233.514 68.1081H243.243V77.8379H233.514V68.1081Z" fill="black"/>
<path d="M252.973 68.1081H262.703V77.8379H252.973V68.1081Z" fill="black"/>
<path d="M272.432 68.1081H282.162V77.8379H272.432V68.1081Z" fill="black"/>
<path d="M330.811 68.1081H340.541V77.8379H330.811V68.1081Z" fill="black"/>
<path d="M19.4595 77.8379H29.1892V87.5676H19.4595V77.8379Z" fill="black"/>
<path d="M29.1892 77.8379H38.9189V87.5676H29.1892V77.8379Z" fill="black"/>
<path d="M38.9189 77.8379H48.6487V87.5676H38.9189V77.8379Z" fill="black"/>
<path d="M48.6487 77.8379H58.3784V87.5676H48.6487V77.8379Z" fill="black"/>
<path d="M58.3784 77.8379H68.1081V87.5676H58.3784V77.8379Z" fill="black"/>
<path d="M68.1081 77.8379H77.8379V87.5676H68.1081V77.8379Z" fill="black"/>
<path d="M77.8379 77.8379H87.5676V87.5676H77.8379V77.8379Z" fill="black"/>
<path d="M97.2973 77.8379H107.027V87.5676H97.2973V77.8379Z" fill="black"/>
<path d="M116.757 77.8379H126.487V87.5676H116.757V77.8379Z" fill="black"/>
<path d="M136.216 77.8379H145.946V87.5676H136.216V77.8379Z" fill="black"/>
<path d="M155.676 77.8379H165.405V87.5676H155.676V77.8379Z" fill="black"/>
<path d="M175.135 77.8379H184.865V87.5676H175.135V77.8379Z" fill="black"/>
<path d="M194.595 77.8379H204.324V87.5676H194.595V77.8379Z" fill="black"/>
<path d="M214.054 77.8379H223.784V87.5676H214.054V77.8379Z" fill="black"/>
<path d="M233.514 77.8379H243.243V87.5676H233.514V77.8379Z" fill="black"/>
<path d="M252.973 77.8379H262.703V87.5676H252.973V77.8379Z" fill="black"/>
<path d="M272.432 77.8379H282.162V87.5676H272.432V77.8379Z" fill="black"/>
<path d="M282.162 77.8379H291.892V87.5676H282.162V77.8379Z" fill="black"/>
<path d="M291.892 77.8379H301.622V87.5676H291.892V77.8379Z" fill="black"/>
<path d="M301.622 77.8379H311.351V87.5676H301.622V77.8379Z" fill="black"/>
<path d="M311.351 77.8379H321.081V87.5676H311.351V77.8379Z" fill="black"/>
<path d="M321.081 77.8379H330.811V87.5676H321.081V77.8379Z" fill="black"/>
<path d="M330.811 77.8379H340.541V87.5676H330.811V77.8379Z" fill="black"/>
<path d="M136.216 87.5676H145.946V97.2973H136.216V87.5676Z" fill="black"/>
<path d="M155.676 87.5676H165.405V97.2973H155.676V87.5676Z" fill="black"/>
<path d="M184.865 87.5676H194.595V97.2973H184.865V87.5676Z" fill="black"/>
<path d="M204.324 87.5676H214.054V97.2973H204.324V87.5676Z" fill="black"/>
<path d="M38.9189 97.2973H48.6487V107.027H38.9189V97.2973Z" fill="black"/>
<path d="M68.1081 97.2973H77.8379V107.027H68.1081V97.2973Z" fill="black"/>
<path d="M77.8379 97.2973H87.5676V107.027H77.8379V97.2973Z" fill="black"/>
<path d="M87.5676 97.2973H97.2973V107.027H87.5676V97.2973Z" fill="black"/>
<path d="M97.2973 97.2973H107.027V107.027H97.2973V97.2973Z" fill="black"/>
<path d="M116.757 97.2973H126.487V107.027H116.757V97.2973Z" fill="black"/>
<path d="M136.216 97.2973H145.946V107.027H136.216V97.2973Z" fill="black"/>
<path d="M155.676 97.2973H165.405V107.027H155.676V97.2973Z" fill="black"/>
<path d="M184.865 97.2973H194.595V107.027H184.865V97.2973Z" fill="black"/>
<path d="M194.595 97.2973H204.324V107.027H194.595V97.2973Z" fill="black"/>
<path d="M204.324 97.2973H214.054V107.027H204.324V97.2973Z" fill="black"/>
<path d="M243.243 97.2973H252.973V107.027H243.243V97.2973Z" fill="black"/>
<path d="M252.973 97.2973H262.703V107.027H252.973V97.2973Z" fill="black"/>
<path d="M262.703 97.2973H272.432V107.027H262.703V97.2973Z" fill="black"/>
<path d="M282.162 97.2973H291.892V107.027H282.162V97.2973Z" fill="black"/>
<path d="M291.892 97.2973H301.622V107.027H291.892V97.2973Z" fill="black"/>
<path d="M301.622 97.2973H311.351V107.027H301.622V97.2973Z" fill="black"/>
<path d="M311.351 97.2973H321.081V107.027H311.351V97.2973Z" fill="black"/>
<path d="M321.081 97.2973H330.811V107.027H321.081V97.2973Z" fill="black"/>
<path d="M19.4595 107.027H29.1892V116.757H19.4595V107.027Z" fill="black"/>
<path d="M38.9189 107.027H48.6487V116.757H38.9189V107.027Z" fill="black"/>
<path d="M48.6487 107.027H58.3784V116.757H48.6487V107.027Z" fill="black"/>
<path d="M58.3784 107.027H68.1081V116.757H58.3784V107.027Z" fill="black"/>
<path d="M68.1081 107.027H77.8379V116.757H68.1081V107.027Z" fill="black"/>
<path d="M107.027 107.027H116.757V116.757H107.027V107.027Z" fill="black"/>
<path d="M116.757 107.027H126.487V116.757H116.757V107.027Z" fill="black"/>
<path d="M126.487 107.027H136.216V116.757H126.487V107.027Z" fill="black"/>
<path d="M145.946 107.027H155.676V116.757H145.946V107.027Z" fill="black"/>
<path d="M155.676 107.027H165.405V116.757H155.676V107.027Z" fill="black"/>
<path d="M184.865 107.027H194.595V116.757H184.865V107.027Z" fill="black"/>
<path d="M194.595 107.027H204.324V116.757H194.595V107.027Z" fill="black"/>
<path d="M223.784 107.027H233.514V116.757H223.784V107.027Z" fill="black"/>
<path d="M243.243 107.027H252.973V116.757H243.243V107.027Z" fill="black"/>
<path d="M262.703 107.027H272.432V116.757H262.703V107.027Z" fill="black"/>
<path d="M272.432 107.027H282.162V116.757H272.432V107.027Z" fill="black"/>
<path d="M282.162 107.027H291.892V116.757H282.162V107.027Z" fill="black"/>
<path d="M301.622 107.027H311.351V116.757H301.622V107.027Z" fill="black"/>
<path d="M311.351 107.027H321.081V116.757H311.351V107.027Z" fill="black"/>
<path d="M330.811 107.027H340.541V116.757H330.811V107.027Z" fill="black"/>
<path d="M38.9189 116.757H48.6487V126.487H38.9189V116.757Z" fill="black"/>
<path d="M68.1081 116.757H77.8379V126.487H68.1081V116.757Z" fill="black"/>
<path d="M77.8379 116.757H87.5676V126.487H77.8379V116.757Z" fill="black"/>
<path d="M97.2973 116.757H107.027V126.487H97.2973V116.757Z" fill="black"/>
<path d="M107.027 116.757H116.757V126.487H107.027V116.757Z" fill="black"/>
<path d="M136.216 116.757H145.946V126.487H136.216V116.757Z" fill="black"/>
<path d="M155.676 116.757H165.405V126.487H155.676V116.757Z" fill="black"/>
<path d="M165.405 116.757H175.135V126.487H165.405V116.757Z" fill="black"/>
<path d="M184.865 116.757H194.595V126.487H184.865V116.757Z" fill="black"/>
<path d="M194.595 116.757H204.324V126.487H194.595V116.757Z" fill="black"/>
<path d="M243.243 116.757H252.973V126.487H243.243V116.757Z" fill="black"/>
<path d="M262.703 116.757H272.432V126.487H262.703V116.757Z" fill="black"/>
<path d="M282.162 116.757H291.892V126.487H282.162V116.757Z" fill="black"/>
<path d="M291.892 116.757H301.622V126.487H291.892V116.757Z" fill="black"/>
<path d="M330.811 116.757H340.541V126.487H330.811V116.757Z" fill="black"/>
<path d="M19.4595 126.487H29.1892V136.216H19.4595V126.487Z" fill="black"/>
<path d="M48.6487 126.487H58.3784V136.216H48.6487V126.487Z" fill="black"/>
<path d="M68.1081 126.487H77.8379V136.216H68.1081V126.487Z" fill="black"/>
<path d="M87.5676 126.487H97.2973V136.216H87.5676V126.487Z" fill="black"/>
<path d="M107.027 126.487H116.757V136.216H107.027V126.487Z" fill="black"/>
<path d="M116.757 126.487H126.487V136.216H116.757V126.487Z" fill="black"/>
<path d="M126.487 126.487H136.216V136.216H126.487V126.487Z" fill="black"/>
<path d="M136.216 126.487H145.946V136.216H136.216V126.487Z" fill="black"/>
<path d="M145.946 126.487H155.676V136.216H145.946V126.487Z" fill="black"/>
<path d="M175.135 126.487H184.865V136.216H175.135V126.487Z" fill="black"/>
<path d="M214.054 126.487H223.784V136.216H214.054V126.487Z" fill="black"/>
<path d="M223.784 126.487H233.514V136.216H223.784V126.487Z" fill="black"/>
<path d="M243.243 126.487H252.973V136.216H243.243V126.487Z" fill="black"/>
<path d="M262.703 126.487H272.432V136.216H262.703V126.487Z" fill="black"/>
<path d="M282.162 126.487H291.892V136.216H282.162V126.487Z" fill="black"/>
<path d="M301.622 126.487H311.351V136.216H301.622V126.487Z" fill="black"/>
<path d="M321.081 126.487H330.811V136.216H321.081V126.487Z" fill="black"/>
<path d="M29.1892 136.216H38.9189V145.946H29.1892V136.216Z" fill="black"/>
<path d="M38.9189 136.216H48.6487V145.946H38.9189V136.216Z" fill="black"/>
<path d="M58.3784 136.216H68.1081V145.946H58.3784V136.216Z" fill="black"/>
<path d="M68.1081 136.216H77.8379V145.946H68.1081V136.216Z" fill="black"/>
<path d="M77.8379 136.216H87.5676V145.946H77.8379V136.216Z" fill="black"/>
<path d="M87.5676 136.216H97.2973V145.946H87.5676V136.216Z" fill="black"/>
<path d="M223.784 136.216H233.514V145.946H223.784V136.216Z" fill="black"/>
<path d="M243.243 136.216H252.973V145.946H243.243V136.216Z" fill="black"/>
<path d="M252.973 136.216H262.703V145.946H252.973V136.216Z" fill="black"/>
<path d="M272.432 136.216H282.162V145.946H272.432V136.216Z" fill="black"/>
<path d="M282.162 136.216H291.892V145.946H282.162V136.216Z" fill="black"/>
<path d="M291.892 136.216H301.622V145.946H291.892V136.216Z" fill="black"/>
<path d="M301.622 136.216H311.351V145.946H301.622V136.216Z" fill="black"/>
<path d="M19.4595 145.946H29.1892V155.676H19.4595V145.946Z" fill="black"/>
<path d="M29.1892 145.946H38.9189V155.676H29.1892V145.946Z" fill="black"/>
<path d="M48.6487 145.946H58.3784V155.676H48.6487V145.946Z" fill="black"/>
<path d="M87.5676 145.946H97.2973V155.676H87.5676V145.946Z" fill="black"/>
<path d="M107.027 145.946H116.757V155.676H107.027V145.946Z" fill="black"/>
<path d="M116.757 145.946H126.487V155.676H116.757V145.946Z" fill="black"/>
<path d="M126.487 145.946H136.216V155.676H126.487V145.946Z" fill="black"/>
<path d="M223.784 145.946H233.514V155.676H223.784V145.946Z" fill="black"/>
<path d="M243.243 145.946H252.973V155.676H243.243V145.946Z" fill="black"/>
<path d="M252.973 145.946H262.703V155.676H252.973V145.946Z" fill="black"/>
<path d="M272.432 145.946H282.162V155.676H272.432V145.946Z" fill="black"/>
<path d="M282.162 145.946H291.892V155.676H282.162V145.946Z" fill="black"/>
<path d="M291.892 145.946H301.622V155.676H291.892V145.946Z" fill="black"/>
<path d="M301.622 145.946H311.351V155.676H301.622V145.946Z" fill="black"/>
<path d="M311.351 145.946H321.081V155.676H311.351V145.946Z" fill="black"/>
<path d="M330.811 145.946H340.541V155.676H330.811V145.946Z" fill="black"/>
<path d="M48.6487 155.676H58.3784V165.405H48.6487V155.676Z" fill="black"/>
<path d="M68.1081 155.676H77.8379V165.405H68.1081V155.676Z" fill="black"/>
<path d="M77.8379 155.676H87.5676V165.405H77.8379V155.676Z" fill="black"/>
<path d="M97.2973 155.676H107.027V165.405H97.2973V155.676Z" fill="black"/>
<path d="M107.027 155.676H116.757V165.405H107.027V155.676Z" fill="black"/>
<path d="M126.487 155.676H136.216V165.405H126.487V155.676Z" fill="black"/>
<path d="M243.243 155.676H252.973V165.405H243.243V155.676Z" fill="black"/>
<path d="M282.162 155.676H291.892V165.405H282.162V155.676Z" fill="black"/>
<path d="M311.351 155.676H321.081V165.405H311.351V155.676Z" fill="black"/>
<path d="M330.811 155.676H340.541V165.405H330.811V155.676Z" fill="black"/>
<path d="M29.1892 165.405H38.9189V175.135H29.1892V165.405Z" fill="black"/>
<path d="M68.1081 165.405H77.8379V175.135H68.1081V165.405Z" fill="black"/>
<path d="M97.2973 165.405H107.027V175.135H97.2973V165.405Z" fill="black"/>
<path d="M107.027 165.405H116.757V175.135H107.027V165.405Z" fill="black"/>
<path d="M116.757 165.405H126.487V175.135H116.757V165.405Z" fill="black"/>
<path d="M126.487 165.405H136.216V175.135H126.487V165.405Z" fill="black"/>
<path d="M233.514 165.405H243.243V175.135H233.514V165.405Z" fill="black"/>
<path d="M243.243 165.405H252.973V175.135H243.243V165.405Z" fill="black"/>
<path d="M272.432 165.405H282.162V175.135H272.432V165.405Z" fill="black"/>
<path d="M282.162 165.405H291.892V175.135H282.162V165.405Z" fill="black"/>
<path d="M291.892 165.405H301.622V175.135H291.892V165.405Z" fill="black"/>
<path d="M19.4595 175.135H29.1892V184.865H19.4595V175.135Z" fill="black"/>
<path d="M29.1892 175.135H38.9189V184.865H29.1892V175.135Z" fill="black"/>
<path d="M38.9189 175.135H48.6487V184.865H38.9189V175.135Z" fill="black"/>
<path d="M68.1081 175.135H77.8379V184.865H68.1081V175.135Z" fill="black"/>
<path d="M77.8379 175.135H87.5676V184.865H77.8379V175.135Z" fill="black"/>
<path d="M87.5676 175.135H97.2973V184.865H87.5676V175.135Z" fill="black"/>
<path d="M107.027 175.135H116.757V184.865H107.027V175.135Z" fill="black"/>
<path d="M116.757 175.135H126.487V184.865H116.757V175.135Z" fill="black"/>
<path d="M233.514 175.135H243.243V184.865H233.514V175.135Z" fill="black"/>
<path d="M243.243 175.135H252.973V184.865H243.243V175.135Z" fill="black"/>
<path d="M272.432 175.135H282.162V184.865H272.432V175.135Z" fill="black"/>
<path d="M282.162 175.135H291.892V184.865H282.162V175.135Z" fill="black"/>
<path d="M301.622 175.135H311.351V184.865H301.622V175.135Z" fill="black"/>
<path d="M38.9189 184.865H48.6487V194.595H38.9189V184.865Z" fill="black"/>
<path d="M48.6487 184.865H58.3784V194.595H48.6487V184.865Z" fill="black"/>
<path d="M97.2973 184.865H107.027V194.595H97.2973V184.865Z" fill="black"/>
<path d="M126.487 184.865H136.216V194.595H126.487V184.865Z" fill="black"/>
<path d="M223.784 184.865H233.514V194.595H223.784V184.865Z" fill="black"/>
<path d="M243.243 184.865H252.973V194.595H243.243V184.865Z" fill="black"/>
<path d="M262.703 184.865H272.432V194.595H262.703V184.865Z" fill="black"/>
<path d="M272.432 184.865H282.162V194.595H272.432V184.865Z" fill="black"/>
<path d="M282.162 184.865H291.892V194.595H282.162V184.865Z" fill="black"/>
<path d="M311.351 184.865H321.081V194.595H311.351V184.865Z" fill="black"/>
<path d="M330.811 184.865H340.541V194.595H330.811V184.865Z" fill="black"/>
<path d="M29.1892 194.595H38.9189V204.324H29.1892V194.595Z" fill="black"/>
<path d="M38.9189 194.595H48.6487V204.324H38.9189V194.595Z" fill="black"/>
<path d="M58.3784 194.595H68.1081V204.324H58.3784V194.595Z" fill="black"/>
<path d="M77.8379 194.595H87.5676V204.324H77.8379V194.595Z" fill="black"/>
<path d="M97.2973 194.595H107.027V204.324H97.2973V194.595Z" fill="black"/>
<path d="M107.027 194.595H116.757V204.324H107.027V194.595Z" fill="black"/>
<path d="M126.487 194.595H136.216V204.324H126.487V194.595Z" fill="black"/>
<path d="M223.784 194.595H233.514V204.324H223.784V194.595Z" fill="black"/>
<path d="M243.243 194.595H252.973V204.324H243.243V194.595Z" fill="black"/>
<path d="M262.703 194.595H272.432V204.324H262.703V194.595Z" fill="black"/>
<path d="M272.432 194.595H282.162V204.324H272.432V194.595Z" fill="black"/>
<path d="M291.892 194.595H301.622V204.324H291.892V194.595Z" fill="black"/>
<path d="M301.622 194.595H311.351V204.324H301.622V194.595Z" fill="black"/>
<path d="M311.351 194.595H321.081V204.324H311.351V194.595Z" fill="black"/>
<path d="M330.811 194.595H340.541V204.324H330.811V194.595Z" fill="black"/>
<path d="M19.4595 204.324H29.1892V214.054H19.4595V204.324Z" fill="black"/>
<path d="M38.9189 204.324H48.6487V214.054H38.9189V204.324Z" fill="black"/>
<path d="M58.3784 204.324H68.1081V214.054H58.3784V204.324Z" fill="black"/>
<path d="M87.5676 204.324H97.2973V214.054H87.5676V204.324Z" fill="black"/>
<path d="M107.027 204.324H116.757V214.054H107.027V204.324Z" fill="black"/>
<path d="M126.487 204.324H136.216V214.054H126.487V204.324Z" fill="black"/>
<path d="M233.514 204.324H243.243V214.054H233.514V204.324Z" fill="black"/>
<path d="M243.243 204.324H252.973V214.054H243.243V204.324Z" fill="black"/>
<path d="M262.703 204.324H272.432V214.054H262.703V204.324Z" fill="black"/>
<path d="M282.162 204.324H291.892V214.054H282.162V204.324Z" fill="black"/>
<path d="M301.622 204.324H311.351V214.054H301.622V204.324Z" fill="black"/>
<path d="M321.081 204.324H330.811V214.054H321.081V204.324Z" fill="black"/>
<path d="M330.811 204.324H340.541V214.054H330.811V204.324Z" fill="black"/>
<path d="M29.1892 214.054H38.9189V223.784H29.1892V214.054Z" fill="black"/>
<path d="M38.9189 214.054H48.6487V223.784H38.9189V214.054Z" fill="black"/>
<path d="M48.6487 214.054H58.3784V223.784H48.6487V214.054Z" fill="black"/>
<path d="M58.3784 214.054H68.1081V223.784H58.3784V214.054Z" fill="black"/>
<path d="M77.8379 214.054H87.5676V223.784H77.8379V214.054Z" fill="black"/>
<path d="M87.5676 214.054H97.2973V223.784H87.5676V214.054Z" fill="black"/>
<path d="M243.243 214.054H252.973V223.784H243.243V214.054Z" fill="black"/>
<path d="M252.973 214.054H262.703V223.784H252.973V214.054Z" fill="black"/>
<path d="M262.703 214.054H272.432V223.784H262.703V214.054Z" fill="black"/>
<path d="M272.432 214.054H282.162V223.784H272.432V214.054Z" fill="black"/>
<path d="M282.162 214.054H291.892V223.784H282.162V214.054Z" fill="black"/>
<path d="M29.1892 223.784H38.9189V233.514H29.1892V223.784Z" fill="black"/>
<path d="M38.9189 223.784H48.6487V233.514H38.9189V223.784Z" fill="black"/>
<path d="M58.3784 223.784H68.1081V233.514H58.3784V223.784Z" fill="black"/>
<path d="M87.5676 223.784H97.2973V233.514H87.5676V223.784Z" fill="black"/>
<path d="M107.027 223.784H116.757V233.514H107.027V223.784Z" fill="black"/>
<path d="M116.757 223.784H126.487V233.514H116.757V223.784Z" fill="black"/>
<path d="M126.487 223.784H136.216V233.514H126.487V223.784Z" fill="black"/>
<path d="M145.946 223.784H155.676V233.514H145.946V223.784Z" fill="black"/>
<path d="M155.676 223.784H165.405V233.514H155.676V223.784Z" fill="black"/>
<path d="M165.405 223.784H175.135V233.514H165.405V223.784Z" fill="black"/>
<path d="M175.135 223.784H184.865V233.514H175.135V223.784Z" fill="black"/>
<path d="M233.514 223.784H243.243V233.514H233.514V223.784Z" fill="black"/>
<path d="M252.973 223.784H262.703V233.514H252.973V223.784Z" fill="black"/>
<path d="M262.703 223.784H272.432V233.514H262.703V223.784Z" fill="black"/>
<path d="M282.162 223.784H291.892V233.514H282.162V223.784Z" fill="black"/>
<path d="M301.622 223.784H311.351V233.514H301.622V223.784Z" fill="black"/>
<path d="M330.811 223.784H340.541V233.514H330.811V223.784Z" fill="black"/>
<path d="M19.4595 233.514H29.1892V243.243H19.4595V233.514Z" fill="black"/>
<path d="M29.1892 233.514H38.9189V243.243H29.1892V233.514Z" fill="black"/>
<path d="M48.6487 233.514H58.3784V243.243H48.6487V233.514Z" fill="black"/>
<path d="M58.3784 233.514H68.1081V243.243H58.3784V233.514Z" fill="black"/>
<path d="M68.1081 233.514H77.8379V243.243H68.1081V233.514Z" fill="black"/>
<path d="M77.8379 233.514H87.5676V243.243H77.8379V233.514Z" fill="black"/>
<path d="M116.757 233.514H126.487V243.243H116.757V233.514Z" fill="black"/>
<path d="M165.405 233.514H175.135V243.243H165.405V233.514Z" fill="black"/>
<path d="M175.135 233.514H184.865V243.243H175.135V233.514Z" fill="black"/>
<path d="M204.324 233.514H214.054V243.243H204.324V233.514Z" fill="black"/>
<path d="M214.054 233.514H223.784V243.243H214.054V233.514Z" fill="black"/>
<path d="M233.514 233.514H243.243V243.243H233.514V233.514Z" fill="black"/>
<path d="M252.973 233.514H262.703V243.243H252.973V233.514Z" fill="black"/>
<path d="M262.703 233.514H272.432V243.243H262.703V233.514Z" fill="black"/>
<path d="M272.432 233.514H282.162V243.243H272.432V233.514Z" fill="black"/>
<path d="M282.162 233.514H291.892V243.243H282.162V233.514Z" fill="black"/>
<path d="M291.892 233.514H301.622V243.243H291.892V233.514Z" fill="black"/>
<path d="M311.351 233.514H321.081V243.243H311.351V233.514Z" fill="black"/>
<path d="M330.811 233.514H340.541V243.243H330.811V233.514Z" fill="black"/>
<path d="M48.6487 243.243H58.3784V252.973H48.6487V243.243Z" fill="black"/>
<path d="M87.5676 243.243H97.2973V252.973H87.5676V243.243Z" fill="black"/>
<path d="M97.2973 243.243H107.027V252.973H97.2973V243.243Z" fill="black"/>
<path d="M107.027 243.243H116.757V252.973H107.027V243.243Z" fill="black"/>
<path d="M116.757 243.243H126.487V252.973H116.757V243.243Z" fill="black"/>
<path d="M155.676 243.243H165.405V252.973H155.676V243.243Z" fill="black"/>
<path d="M194.595 243.243H204.324V252.973H194.595V243.243Z" fill="black"/>
<path d="M214.054 243.243H223.784V252.973H214.054V243.243Z" fill="black"/>
<path d="M233.514 243.243H243.243V252.973H233.514V243.243Z" fill="black"/>
<path d="M243.243 243.243H252.973V252.973H243.243V243.243Z" fill="black"/>
<path d="M252.973 243.243H262.703V252.973H252.973V243.243Z" fill="black"/>
<path d="M282.162 243.243H291.892V252.973H282.162V243.243Z" fill="black"/>
<path d="M301.622 243.243H311.351V252.973H301.622V243.243Z" fill="black"/>
<path d="M19.4595 252.973H29.1892V262.703H19.4595V252.973Z" fill="black"/>
<path d="M29.1892 252.973H38.9189V262.703H29.1892V252.973Z" fill="black"/>
<path d="M48.6487 252.973H58.3784V262.703H48.6487V252.973Z" fill="black"/>
<path d="M58.3784 252.973H68.1081V262.703H58.3784V252.973Z" fill="black"/>
<path d="M68.1081 252.973H77.8379V262.703H68.1081V252.973Z" fill="black"/>
<path d="M77.8379 252.973H87.5676V262.703H77.8379V252.973Z" fill="black"/>
<path d="M87.5676 252.973H97.2973V262.703H87.5676V252.973Z" fill="black"/>
<path d="M97.2973 252.973H107.027V262.703H97.2973V252.973Z" fill="black"/>
<path d="M107.027 252.973H116.757V262.703H107.027V252.973Z" fill="black"/>
<path d="M116.757 252.973H126.487V262.703H116.757V252.973Z" fill="black"/>
<path d="M136.216 252.973H145.946V262.703H136.216V252.973Z" fill="black"/>
<path d="M145.946 252.973H155.676V262.703H145.946V252.973Z" fill="black"/>
<path d="M155.676 252.973H165.405V262.703H155.676V252.973Z" fill="black"/>
<path d="M194.595 252.973H204.324V262.703H194.595V252.973Z" fill="black"/>
<path d="M204.324 252.973H214.054V262.703H204.324V252.973Z" fill="black"/>
<path d="M252.973 252.973H262.703V262.703H252.973V252.973Z" fill="black"/>
<path d="M262.703 252.973H272.432V262.703H262.703V252.973Z" fill="black"/>
<path d="M272.432 252.973H282.162V262.703H272.432V252.973Z" fill="black"/>
<path d="M282.162 252.973H291.892V262.703H282.162V252.973Z" fill="black"/>
<path d="M291.892 252.973H301.622V262.703H291.892V252.973Z" fill="black"/>
<path d="M301.622 252.973H311.351V262.703H301.622V252.973Z" fill="black"/>
<path d="M321.081 252.973H330.811V262.703H321.081V252.973Z" fill="black"/>
<path d="M330.811 252.973H340.541V262.703H330.811V252.973Z" fill="black"/>
<path d="M97.2973 262.703H107.027V272.432H97.2973V262.703Z" fill="black"/>
<path d="M107.027 262.703H116.757V272.432H107.027V262.703Z" fill="black"/>
<path d="M126.487 262.703H136.216V272.432H126.487V262.703Z" fill="black"/>
<path d="M136.216 262.703H145.946V272.432H136.216V262.703Z" fill="black"/>
<path d="M145.946 262.703H155.676V272.432H145.946V262.703Z" fill="black"/>
<path d="M184.865 262.703H194.595V272.432H184.865V262.703Z" fill="black"/>
<path d="M194.595 262.703H204.324V272.432H194.595V262.703Z" fill="black"/>
<path d="M214.054 262.703H223.784V272.432H214.054V262.703Z" fill="black"/>
<path d="M243.243 262.703H252.973V272.432H243.243V262.703Z" fill="black"/>
<path d="M252.973 262.703H262.703V272.432H252.973V262.703Z" fill="black"/>
<path d="M291.892 262.703H301.622V272.432H291.892V262.703Z" fill="black"/>
<path d="M301.622 262.703H311.351V272.432H301.622V262.703Z" fill="black"/>
<path d="M311.351 262.703H321.081V272.432H311.351V262.703Z" fill="black"/>
<path d="M330.811 262.703H340.541V272.432H330.811V262.703Z" fill="black"/>
<path d="M19.4595 272.432H29.1892V282.162H19.4595V272.432Z" fill="black"/>
<path d="M29.1892 272.432H38.9189V282.162H29.1892V272.432Z" fill="black"/>
<path d="M38.9189 272.432H48.6487V282.162H38.9189V272.432Z" fill="black"/>
<path d="M48.6487 272.432H58.3784V282.162H48.6487V272.432Z" fill="black"/>
<path d="M58.3784 272.432H68.1081V282.162H58.3784V272.432Z" fill="black"/>
<path d="M68.1081 272.432H77.8379V282.162H68.1081V272.432Z" fill="black"/>
<path d="M77.8379 272.432H87.5676V282.162H77.8379V272.432Z" fill="black"/>
<path d="M97.2973 272.432H107.027V282.162H97.2973V272.432Z" fill="black"/>
<path d="M107.027 272.432H116.757V282.162H107.027V272.432Z" fill="black"/>
<path d="M116.757 272.432H126.487V282.162H116.757V272.432Z" fill="black"/>
<path d="M126.487 272.432H136.216V282.162H126.487V272.432Z" fill="black"/>
<path d="M136.216 272.432H145.946V282.162H136.216V272.432Z" fill="black"/>
<path d="M145.946 272.432H155.676V282.162H145.946V272.432Z" fill="black"/>
<path d="M184.865 272.432H194.595V282.162H184.865V272.432Z" fill="black"/>
<path d="M194.595 272.432H204.324V282.162H194.595V272.432Z" fill="black"/>
<path d="M204.324 272.432H214.054V282.162H204.324V272.432Z" fill="black"/>
<path d="M214.054 272.432H223.784V282.162H214.054V272.432Z" fill="black"/>
<path d="M223.784 272.432H233.514V282.162H223.784V272.432Z" fill="black"/>
<path d="M233.514 272.432H243.243V282.162H233.514V272.432Z" fill="black"/>
<path d="M252.973 272.432H262.703V282.162H252.973V272.432Z" fill="black"/>
<path d="M272.432 272.432H282.162V282.162H272.432V272.432Z" fill="black"/>
<path d="M291.892 272.432H301.622V282.162H291.892V272.432Z" fill="black"/>
<path d="M301.622 272.432H311.351V282.162H301.622V272.432Z" fill="black"/>
<path d="M330.811 272.432H340.541V282.162H330.811V272.432Z" fill="black"/>
<path d="M19.4595 282.162H29.1892V291.892H19.4595V282.162Z" fill="black"/>
<path d="M77.8379 282.162H87.5676V291.892H77.8379V282.162Z" fill="black"/>
<path d="M97.2973 282.162H107.027V291.892H97.2973V282.162Z" fill="black"/>
<path d="M107.027 282.162H116.757V291.892H107.027V282.162Z" fill="black"/>
<path d="M145.946 282.162H155.676V291.892H145.946V282.162Z" fill="black"/>
<path d="M155.676 282.162H165.405V291.892H155.676V282.162Z" fill="black"/>
<path d="M175.135 282.162H184.865V291.892H175.135V282.162Z" fill="black"/>
<path d="M184.865 282.162H194.595V291.892H184.865V282.162Z" fill="black"/>
<path d="M194.595 282.162H204.324V291.892H194.595V282.162Z" fill="black"/>
<path d="M204.324 282.162H214.054V291.892H204.324V282.162Z" fill="black"/>
<path d="M233.514 282.162H243.243V291.892H233.514V282.162Z" fill="black"/>
<path d="M243.243 282.162H252.973V291.892H243.243V282.162Z" fill="black"/>
<path d="M252.973 282.162H262.703V291.892H252.973V282.162Z" fill="black"/>
<path d="M291.892 282.162H301.622V291.892H291.892V282.162Z" fill="black"/>
<path d="M301.622 282.162H311.351V291.892H301.622V282.162Z" fill="black"/>
<path d="M321.081 282.162H330.811V291.892H321.081V282.162Z" fill="black"/>
<path d="M330.811 282.162H340.541V291.892H330.811V282.162Z" fill="black"/>
<path d="M19.4595 291.892H29.1892V301.622H19.4595V291.892Z" fill="black"/>
<path d="M38.9189 291.892H48.6487V301.622H38.9189V291.892Z" fill="black"/>
<path d="M48.6487 291.892H58.3784V301.622H48.6487V291.892Z" fill="black"/>
<path d="M58.3784 291.892H68.1081V301.622H58.3784V291.892Z" fill="black"/>
<path d="M77.8379 291.892H87.5676V301.622H77.8379V291.892Z" fill="black"/>
<path d="M116.757 291.892H126.487V301.622H116.757V291.892Z" fill="black"/>
<path d="M165.405 291.892H175.135V301.622H165.405V291.892Z" fill="black"/>
<path d="M175.135 291.892H184.865V301.622H175.135V291.892Z" fill="black"/>
<path d="M214.054 291.892H223.784V301.622H214.054V291.892Z" fill="black"/>
<path d="M223.784 291.892H233.514V301.622H223.784V291.892Z" fill="black"/>
<path d="M233.514 291.892H243.243V301.622H233.514V291.892Z" fill="black"/>
<path d="M243.243 291.892H252.973V301.622H243.243V291.892Z" fill="black"/>
<path d="M252.973 291.892H262.703V301.622H252.973V291.892Z" fill="black"/>
<path d="M262.703 291.892H272.432V301.622H262.703V291.892Z" fill="black"/>
<path d="M272.432 291.892H282.162V301.622H272.432V291.892Z" fill="black"/>
<path d="M282.162 291.892H291.892V301.622H282.162V291.892Z" fill="black"/>
<path d="M291.892 291.892H301.622V301.622H291.892V291.892Z" fill="black"/>
<path d="M301.622 291.892H311.351V301.622H301.622V291.892Z" fill="black"/>
<path d="M19.4595 301.622H29.1892V311.351H19.4595V301.622Z" fill="black"/>
<path d="M38.9189 301.622H48.6487V311.351H38.9189V301.622Z" fill="black"/>
<path d="M48.6487 301.622H58.3784V311.351H48.6487V301.622Z" fill="black"/>
<path d="M58.3784 301.622H68.1081V311.351H58.3784V301.622Z" fill="black"/>
<path d="M77.8379 301.622H87.5676V311.351H77.8379V301.622Z" fill="black"/>
<path d="M116.757 301.622H126.487V311.351H116.757V301.622Z" fill="black"/>
<path d="M126.487 301.622H136.216V311.351H126.487V301.622Z" fill="black"/>
<path d="M145.946 301.622H155.676V311.351H145.946V301.622Z" fill="black"/>
<path d="M165.405 301.622H175.135V311.351H165.405V301.622Z" fill="black"/>
<path d="M204.324 301.622H214.054V311.351H204.324V301.622Z" fill="black"/>
<path d="M214.054 301.622H223.784V311.351H214.054V301.622Z" fill="black"/>
<path d="M223.784 301.622H233.514V311.351H223.784V301.622Z" fill="black"/>
<path d="M233.514 301.622H243.243V311.351H233.514V301.622Z" fill="black"/>
<path d="M262.703 301.622H272.432V311.351H262.703V301.622Z" fill="black"/>
<path d="M282.162 301.622H291.892V311.351H282.162V301.622Z" fill="black"/>
<path d="M291.892 301.622H301.622V311.351H291.892V301.622Z" fill="black"/>
<path d="M301.622 301.622H311.351V311.351H301.622V301.622Z" fill="black"/>
<path d="M311.351 301.622H321.081V311.351H311.351V301.622Z" fill="black"/>
<path d="M321.081 301.622H330.811V311.351H321.081V301.622Z" fill="black"/>
<path d="M19.4595 311.351H29.1892V321.081H19.4595V311.351Z" fill="black"/>
<path d="M38.9189 311.351H48.6487V321.081H38.9189V311.351Z" fill="black"/>
<path d="M48.6487 311.351H58.3784V321.081H48.6487V311.351Z" fill="black"/>
<path d="M58.3784 311.351H68.1081V321.081H58.3784V311.351Z" fill="black"/>
<path d="M77.8379 311.351H87.5676V321.081H77.8379V311.351Z" fill="black"/>
<path d="M97.2973 311.351H107.027V321.081H97.2973V311.351Z" fill="black"/>
<path d="M107.027 311.351H116.757V321.081H107.027V311.351Z" fill="black"/>
<path d="M126.487 311.351H136.216V321.081H126.487V311.351Z" fill="black"/>
<path d="M136.216 311.351H145.946V321.081H136.216V311.351Z" fill="black"/>
<path d="M145.946 311.351H155.676V321.081H145.946V311.351Z" fill="black"/>
<path d="M155.676 311.351H165.405V321.081H155.676V311.351Z" fill="black"/>
<path d="M175.135 311.351H184.865V321.081H175.135V311.351Z" fill="black"/>
<path d="M184.865 311.351H194.595V321.081H184.865V311.351Z" fill="black"/>
<path d="M233.514 311.351H243.243V321.081H233.514V311.351Z" fill="black"/>
<path d="M252.973 311.351H262.703V321.081H252.973V311.351Z" fill="black"/>
<path d="M291.892 311.351H301.622V321.081H291.892V311.351Z" fill="black"/>
<path d="M321.081 311.351H330.811V321.081H321.081V311.351Z" fill="black"/>
<path d="M330.811 311.351H340.541V321.081H330.811V311.351Z" fill="black"/>
<path d="M19.4595 321.081H29.1892V330.811H19.4595V321.081Z" fill="black"/>
<path d="M77.8379 321.081H87.5676V330.811H77.8379V321.081Z" fill="black"/>
<path d="M107.027 321.081H116.757V330.811H107.027V321.081Z" fill="black"/>
<path d="M116.757 321.081H126.487V330.811H116.757V321.081Z" fill="black"/>
<path d="M136.216 321.081H145.946V330.811H136.216V321.081Z" fill="black"/>
<path d="M145.946 321.081H155.676V330.811H145.946V321.081Z" fill="black"/>
<path d="M155.676 321.081H165.405V330.811H155.676V321.081Z" fill="black"/>
<path d="M165.405 321.081H175.135V330.811H165.405V321.081Z" fill="black"/>
<path d="M233.514 321.081H243.243V330.811H233.514V321.081Z" fill="black"/>
<path d="M252.973 321.081H262.703V330.811H252.973V321.081Z" fill="black"/>
<path d="M19.4595 330.811H29.1892V340.541H19.4595V330.811Z" fill="black"/>
<path d="M29.1892 330.811H38.9189V340.541H29.1892V330.811Z" fill="black"/>
<path d="M38.9189 330.811H48.6487V340.541H38.9189V330.811Z" fill="black"/>
<path d="M48.6487 330.811H58.3784V340.541H48.6487V330.811Z" fill="black"/>
<path d="M58.3784 330.811H68.1081V340.541H58.3784V330.811Z" fill="black"/>
<path d="M68.1081 330.811H77.8379V340.541H68.1081V330.811Z" fill="black"/>
<path d="M77.8379 330.811H87.5676V340.541H77.8379V330.811Z" fill="black"/>
<path d="M107.027 330.811H116.757V340.541H107.027V330.811Z" fill="black"/>
<path d="M136.216 330.811H145.946V340.541H136.216V330.811Z" fill="black"/>
<path d="M165.405 330.811H175.135V340.541H165.405V330.811Z" fill="black"/>
<path d="M175.135 330.811H184.865V340.541H175.135V330.811Z" fill="black"/>
<path d="M184.865 330.811H194.595V340.541H184.865V330.811Z" fill="black"/>
<path d="M194.595 330.811H204.324V340.541H194.595V330.811Z" fill="black"/>
<path d="M204.324 330.811H214.054V340.541H204.324V330.811Z" fill="black"/>
<path d="M214.054 330.811H223.784V340.541H214.054V330.811Z" fill="black"/>
<path d="M252.973 330.811H262.703V340.541H252.973V330.811Z" fill="black"/>
<path d="M272.432 330.811H282.162V340.541H272.432V330.811Z" fill="black"/>
<path d="M291.892 330.811H301.622V340.541H291.892V330.811Z" fill="black"/>
<path d="M301.622 330.811H311.351V340.541H301.622V330.811Z" fill="black"/>
<path d="M311.351 330.811H321.081V340.541H311.351V330.811Z" fill="black"/>
<path d="M330.811 330.811H340.541V340.541H330.811V330.811Z" fill="black"/>
<path d="M29.1892 19.4595H19.4595V29.1892M29.1892 19.4595V29.1892M29.1892 19.4595H38.9189M29.1892 29.1892H19.4595M29.1892 29.1892H38.9189M29.1892 29.1892V38.9189M19.4595 29.1892V38.9189M38.9189 19.4595V29.1892M38.9189 19.4595H48.6487M38.9189 29.1892H48.6487M48.6487 19.4595V29.1892M48.6487 19.4595H58.3784M48.6487 29.1892H58.3784M58.3784 19.4595V29.1892M58.3784 19.4595H68.1081M58.3784 29.1892H68.1081M68.1081 19.4595V29.1892M68.1081 19.4595H77.8379M68.1081 29.1892H77.8379M77.8379 19.4595V29.1892M77.8379 19.4595H87.5676V29.1892M77.8379 29.1892H87.5676M77.8379 29.1892V38.9189M87.5676 29.1892V38.9189M116.757 29.1892V19.4595H107.027V29.1892M116.757 29.1892H107.027M116.757 29.1892V38.9189M116.757 29.1892H126.487M107.027 29.1892H97.2973V38.9189M107.027 29.1892V38.9189M136.216 19.4595H126.487V29.1892M136.216 19.4595V29.1892M136.216 19.4595H145.946V29.1892H136.216M136.216 29.1892H126.487M136.216 29.1892V38.9189H126.487M126.487 29.1892V38.9189M165.405 29.1892V19.4595H155.676V29.1892M165.405 29.1892H155.676M165.405 29.1892V38.9189M155.676 29.1892V38.9189M204.324 19.4595H194.595V29.1892M204.324 19.4595V29.1892M204.324 19.4595H214.054M204.324 29.1892H194.595M204.324 29.1892H214.054M204.324 29.1892V38.9189M194.595 29.1892V38.9189H204.324M214.054 19.4595V29.1892M214.054 19.4595H223.784V29.1892M214.054 29.1892H223.784M214.054 29.1892V38.9189M223.784 29.1892H233.514M223.784 29.1892V38.9189M243.243 29.1892V19.4595H233.514V29.1892M243.243 29.1892H233.514M243.243 29.1892V38.9189H233.514M233.514 29.1892V38.9189M282.162 19.4595H272.432V29.1892M282.162 19.4595V29.1892M282.162 19.4595H291.892M282.162 29.1892H272.432M282.162 29.1892H291.892M282.162 29.1892V38.9189M272.432 29.1892V38.9189M291.892 19.4595V29.1892M291.892 19.4595H301.622M291.892 29.1892H301.622M301.622 19.4595V29.1892M301.622 19.4595H311.351M301.622 29.1892H311.351M311.351 19.4595V29.1892M311.351 19.4595H321.081M311.351 29.1892H321.081M321.081 19.4595V29.1892M321.081 19.4595H330.811M321.081 29.1892H330.811M330.811 19.4595V29.1892M330.811 19.4595H340.541V29.1892M330.811 29.1892H340.541M330.811 29.1892V38.9189M340.541 29.1892V38.9189M29.1892 38.9189H19.4595M29.1892 38.9189V48.6487M19.4595 38.9189V48.6487M87.5676 38.9189H77.8379M87.5676 38.9189V48.6487M77.8379 38.9189V48.6487M107.027 38.9189H97.2973M107.027 38.9189H116.757M107.027 38.9189V48.6487M97.2973 38.9189V48.6487M116.757 38.9189H126.487M116.757 38.9189V48.6487M126.487 38.9189V48.6487M165.405 38.9189H155.676M165.405 38.9189V48.6487M165.405 38.9189H175.135M155.676 38.9189H145.946V48.6487H155.676M155.676 38.9189V48.6487M204.324 38.9189H214.054M204.324 38.9189V48.6487M214.054 38.9189V48.6487M233.514 38.9189H223.784M233.514 38.9189V48.6487M223.784 38.9189V48.6487M282.162 38.9189H272.432M282.162 38.9189V48.6487M272.432 38.9189V48.6487M340.541 38.9189H330.811M340.541 38.9189V48.6487M330.811 38.9189V48.6487M29.1892 48.6487H19.4595M29.1892 48.6487V58.3784M19.4595 48.6487V58.3784M48.6487 38.9189H38.9189V48.6487M48.6487 38.9189V48.6487M48.6487 38.9189H58.3784M48.6487 48.6487H38.9189M48.6487 48.6487H58.3784M48.6487 48.6487V58.3784M38.9189 48.6487V58.3784M58.3784 38.9189V48.6487M58.3784 38.9189H68.1081V48.6487M58.3784 48.6487H68.1081M58.3784 48.6487V58.3784M68.1081 48.6487V58.3784M87.5676 48.6487H77.8379M87.5676 48.6487V58.3784M77.8379 48.6487V58.3784M107.027 48.6487H97.2973M107.027 48.6487H116.757M107.027 48.6487V58.3784M97.2973 48.6487V58.3784M116.757 48.6487H126.487M116.757 48.6487V58.3784M126.487 48.6487V58.3784M155.676 48.6487H165.405M165.405 48.6487H175.135M165.405 48.6487V58.3784M175.135 38.9189V48.6487M175.135 38.9189H184.865V48.6487H175.135M175.135 48.6487V58.3784M214.054 48.6487H204.324M214.054 48.6487V58.3784M204.324 48.6487V58.3784M233.514 48.6487H223.784M233.514 48.6487V58.3784M233.514 48.6487H243.243M223.784 48.6487V58.3784H233.514M262.703 48.6487V38.9189H252.973V48.6487M262.703 48.6487H252.973M262.703 48.6487V58.3784M252.973 48.6487H243.243M252.973 48.6487V58.3784M282.162 48.6487H272.432M282.162 48.6487V58.3784M272.432 48.6487V58.3784M301.622 38.9189H291.892V48.6487M301.622 38.9189V48.6487M301.622 38.9189H311.351M301.622 48.6487H291.892M301.622 48.6487H311.351M301.622 48.6487V58.3784M291.892 48.6487V58.3784M311.351 38.9189V48.6487M311.351 38.9189H321.081V48.6487M311.351 48.6487H321.081M311.351 48.6487V58.3784M321.081 48.6487V58.3784M340.541 48.6487H330.811M340.541 48.6487V58.3784M330.811 48.6487V58.3784M29.1892 58.3784H19.4595M29.1892 58.3784V68.1081M19.4595 58.3784V68.1081M48.6487 58.3784H38.9189M48.6487 58.3784H58.3784M48.6487 58.3784V68.1081M38.9189 58.3784V68.1081H48.6487M58.3784 58.3784H68.1081M58.3784 58.3784V68.1081M68.1081 58.3784V68.1081H58.3784M87.5676 58.3784H77.8379M87.5676 58.3784V68.1081M77.8379 58.3784V68.1081M107.027 58.3784H97.2973M107.027 58.3784H116.757M107.027 58.3784V68.1081M97.2973 58.3784V68.1081M116.757 58.3784H126.487M116.757 58.3784V68.1081M126.487 58.3784V68.1081M126.487 58.3784H136.216V68.1081H126.487M175.135 58.3784H165.405M175.135 58.3784V68.1081M175.135 58.3784H184.865M165.405 58.3784H155.676V68.1081M165.405 58.3784V68.1081M214.054 58.3784H204.324M214.054 58.3784V68.1081H204.324M204.324 58.3784H194.595M204.324 58.3784V68.1081M233.514 58.3784H243.243M233.514 58.3784V68.1081M243.243 48.6487V58.3784M243.243 58.3784H252.973M243.243 58.3784V68.1081M252.973 58.3784H262.703M252.973 58.3784V68.1081M262.703 58.3784V68.1081M282.162 58.3784H272.432M282.162 58.3784V68.1081M272.432 58.3784V68.1081M301.622 58.3784H291.892M301.622 58.3784H311.351M301.622 58.3784V68.1081M291.892 58.3784V68.1081H301.622M311.351 58.3784H321.081M311.351 58.3784V68.1081M321.081 58.3784V68.1081H311.351M340.541 58.3784H330.811M340.541 58.3784V68.1081M330.811 58.3784V68.1081M29.1892 68.1081H19.4595M29.1892 68.1081V77.8379M19.4595 68.1081V77.8379M48.6487 68.1081H58.3784M87.5676 68.1081H77.8379M87.5676 68.1081V77.8379M77.8379 68.1081V77.8379M107.027 68.1081H97.2973M107.027 68.1081H116.757M107.027 68.1081V77.8379M97.2973 68.1081V77.8379M116.757 68.1081H126.487M165.405 68.1081H155.676M165.405 68.1081H175.135M165.405 68.1081V77.8379M155.676 68.1081H145.946V77.8379M155.676 68.1081V77.8379M175.135 68.1081H184.865M175.135 68.1081V77.8379M184.865 58.3784V68.1081M184.865 58.3784H194.595M184.865 68.1081H194.595M194.595 58.3784V68.1081M194.595 68.1081H204.324M194.595 68.1081V77.8379M204.324 68.1081V77.8379M243.243 68.1081H233.514M243.243 68.1081H252.973M243.243 68.1081V77.8379M233.514 68.1081H223.784V77.8379M233.514 68.1081V77.8379M252.973 68.1081H262.703M252.973 68.1081V77.8379M262.703 68.1081V77.8379M282.162 68.1081H272.432M282.162 68.1081V77.8379M272.432 68.1081V77.8379M301.622 68.1081H311.351M340.541 68.1081H330.811M340.541 68.1081V77.8379M330.811 68.1081V77.8379M29.1892 77.8379H19.4595M29.1892 77.8379V87.5676M29.1892 77.8379H38.9189M19.4595 77.8379V87.5676H29.1892M87.5676 77.8379H77.8379M87.5676 77.8379V87.5676H77.8379M77.8379 77.8379H68.1081M77.8379 77.8379V87.5676M107.027 77.8379H97.2973M107.027 77.8379V87.5676H97.2973V77.8379M155.676 77.8379H145.946M155.676 77.8379H165.405M155.676 77.8379V87.5676M145.946 77.8379H136.216V87.5676M145.946 77.8379V87.5676M175.135 77.8379H165.405M175.135 77.8379H184.865V87.5676M175.135 77.8379V87.5676H184.865M165.405 77.8379V87.5676M204.324 77.8379H194.595M204.324 77.8379V87.5676M194.595 77.8379V87.5676M233.514 77.8379H223.784M233.514 77.8379H243.243M233.514 77.8379V87.5676H243.243V77.8379M223.784 77.8379H214.054V87.5676M223.784 77.8379V87.5676H214.054M262.703 77.8379H252.973M262.703 77.8379V87.5676H252.973V77.8379M282.162 77.8379H272.432M282.162 77.8379V87.5676M282.162 77.8379H291.892M272.432 77.8379V87.5676H282.162M340.541 77.8379H330.811M340.541 77.8379V87.5676H330.811M330.811 77.8379H321.081M330.811 77.8379V87.5676M29.1892 87.5676H38.9189M38.9189 77.8379V87.5676M38.9189 77.8379H48.6487M38.9189 87.5676H48.6487M48.6487 77.8379V87.5676M48.6487 77.8379H58.3784M48.6487 87.5676H58.3784M58.3784 77.8379V87.5676M58.3784 77.8379H68.1081M58.3784 87.5676H68.1081M68.1081 77.8379V87.5676M68.1081 87.5676H77.8379M145.946 87.5676H136.216M145.946 87.5676V97.2973M136.216 87.5676V97.2973M165.405 87.5676H155.676M165.405 87.5676V97.2973M155.676 87.5676V97.2973M184.865 87.5676H194.595M184.865 87.5676V97.2973M204.324 87.5676H194.595M204.324 87.5676H214.054M204.324 87.5676V97.2973M194.595 87.5676V97.2973M214.054 87.5676V97.2973M282.162 87.5676H291.892M291.892 77.8379V87.5676M291.892 77.8379H301.622M291.892 87.5676H301.622M301.622 77.8379V87.5676M301.622 77.8379H311.351M301.622 87.5676H311.351M311.351 77.8379V87.5676M311.351 77.8379H321.081M311.351 87.5676H321.081M321.081 77.8379V87.5676M321.081 87.5676H330.811M145.946 97.2973H136.216M145.946 97.2973V107.027M136.216 97.2973V107.027M165.405 97.2973H155.676M165.405 97.2973V107.027M155.676 97.2973V107.027M194.595 97.2973H184.865M194.595 97.2973V107.027M194.595 97.2973H204.324M184.865 97.2973V107.027M214.054 97.2973H204.324M214.054 97.2973V107.027H204.324M204.324 97.2973V107.027M48.6487 107.027V97.2973H38.9189V107.027M48.6487 107.027H38.9189M48.6487 107.027V116.757M48.6487 107.027H58.3784M38.9189 107.027V116.757M77.8379 97.2973H68.1081V107.027M77.8379 97.2973V107.027M77.8379 97.2973H87.5676M77.8379 107.027H68.1081M77.8379 107.027H87.5676M77.8379 107.027V116.757M68.1081 107.027H58.3784M68.1081 107.027V116.757M87.5676 97.2973V107.027M87.5676 97.2973H97.2973M87.5676 107.027H97.2973M97.2973 97.2973V107.027M97.2973 97.2973H107.027V107.027M97.2973 107.027H107.027M107.027 107.027H116.757M107.027 107.027V116.757M126.487 107.027V97.2973H116.757V107.027M126.487 107.027H116.757M126.487 107.027V116.757M126.487 107.027H136.216M116.757 107.027V116.757M145.946 107.027H136.216M145.946 107.027H155.676M145.946 107.027V116.757M136.216 107.027V116.757M165.405 107.027H155.676M165.405 107.027V116.757M155.676 107.027V116.757M194.595 107.027H184.865M194.595 107.027H204.324M194.595 107.027V116.757M184.865 107.027V116.757M204.324 107.027V116.757M252.973 97.2973H243.243V107.027M252.973 97.2973V107.027M252.973 97.2973H262.703M252.973 107.027H243.243M252.973 107.027H262.703M252.973 107.027V116.757M243.243 107.027V116.757M262.703 97.2973V107.027M262.703 97.2973H272.432V107.027M262.703 107.027H272.432M262.703 107.027V116.757M272.432 107.027V116.757M272.432 107.027H282.162M291.892 97.2973H282.162V107.027M291.892 97.2973V107.027M291.892 97.2973H301.622M291.892 107.027H282.162M291.892 107.027H301.622M291.892 107.027V116.757M282.162 107.027V116.757M301.622 97.2973V107.027M301.622 97.2973H311.351M301.622 107.027H311.351M301.622 107.027V116.757M311.351 97.2973V107.027M311.351 97.2973H321.081M311.351 107.027H321.081M311.351 107.027V116.757M321.081 97.2973V107.027M321.081 97.2973H330.811V107.027M321.081 107.027H330.811M321.081 107.027V116.757H311.351M330.811 107.027H340.541V116.757M330.811 107.027V116.757M48.6487 116.757H38.9189M48.6487 116.757H58.3784M48.6487 116.757V126.487M38.9189 116.757V126.487H48.6487M58.3784 107.027V116.757M58.3784 116.757H68.1081M68.1081 116.757H77.8379M68.1081 116.757V126.487M77.8379 116.757V126.487M77.8379 116.757H87.5676V126.487M116.757 116.757H107.027M116.757 116.757H126.487M116.757 116.757V126.487M107.027 116.757H97.2973V126.487M107.027 116.757V126.487M126.487 116.757H136.216M136.216 116.757H145.946M136.216 116.757V126.487M155.676 116.757H145.946M155.676 116.757H165.405M155.676 116.757V126.487M145.946 116.757V126.487M165.405 116.757V126.487M165.405 116.757H175.135V126.487M194.595 116.757H184.865M194.595 116.757H204.324M194.595 116.757V126.487M184.865 116.757V126.487M204.324 116.757V126.487H194.595M252.973 116.757H243.243M252.973 116.757V126.487M243.243 116.757V126.487M272.432 116.757H262.703M272.432 116.757H282.162M272.432 116.757V126.487M262.703 116.757V126.487M282.162 116.757H291.892M282.162 116.757V126.487M291.892 116.757V126.487M291.892 116.757H301.622M311.351 116.757H301.622M301.622 116.757V126.487M340.541 116.757H330.811M340.541 116.757V126.487H330.811M330.811 116.757V126.487M48.6487 126.487H58.3784V136.216M48.6487 126.487V136.216M77.8379 126.487H68.1081M77.8379 126.487H87.5676M77.8379 126.487V136.216M68.1081 126.487V136.216M87.5676 126.487H97.2973M87.5676 126.487V136.216M107.027 126.487H97.2973M107.027 126.487H116.757M107.027 126.487V136.216H116.757M97.2973 126.487V136.216M116.757 126.487V136.216M116.757 126.487H126.487M145.946 126.487H136.216M145.946 126.487V136.216M145.946 126.487H155.676M136.216 126.487H126.487M136.216 126.487V136.216M165.405 126.487H155.676M165.405 126.487H175.135M155.676 126.487V136.216H145.946M175.135 126.487H184.865M175.135 126.487V136.216H184.865V126.487M194.595 126.487H184.865M252.973 126.487H243.243M252.973 126.487V136.216M243.243 126.487V136.216M272.432 126.487H262.703M272.432 126.487V136.216M262.703 126.487V136.216M291.892 126.487H282.162M291.892 126.487H301.622M291.892 126.487V136.216M282.162 126.487V136.216M301.622 126.487H311.351V136.216M301.622 126.487V136.216M330.811 126.487H321.081V136.216H330.811V126.487ZM29.1892 136.216V126.487H19.4595V136.216H29.1892ZM29.1892 136.216H38.9189M29.1892 136.216V145.946M58.3784 136.216H48.6487M58.3784 136.216H68.1081M58.3784 136.216V145.946M48.6487 136.216H38.9189M48.6487 136.216V145.946M77.8379 136.216H68.1081M77.8379 136.216V145.946M77.8379 136.216H87.5676M68.1081 136.216V145.946M97.2973 136.216H87.5676M97.2973 136.216V145.946M87.5676 136.216V145.946M116.757 136.216H126.487M126.487 126.487V136.216M126.487 136.216H136.216M136.216 136.216H145.946M223.784 126.487H214.054V136.216H223.784M223.784 126.487V136.216M223.784 126.487H233.514V136.216M223.784 136.216H233.514M223.784 136.216V145.946M233.514 136.216V145.946M252.973 136.216H243.243M252.973 136.216V145.946M252.973 136.216H262.703M243.243 136.216V145.946M272.432 136.216H262.703M272.432 136.216H282.162M272.432 136.216V145.946M262.703 136.216V145.946M291.892 136.216H282.162M291.892 136.216V145.946M291.892 136.216H301.622M282.162 136.216V145.946M311.351 136.216H301.622M311.351 136.216V145.946M301.622 136.216V145.946M38.9189 136.216V145.946M38.9189 145.946H29.1892M38.9189 145.946H48.6487M38.9189 145.946V155.676H29.1892M29.1892 145.946H19.4595V155.676H29.1892M29.1892 145.946V155.676M48.6487 145.946H58.3784M48.6487 145.946V155.676M68.1081 145.946H58.3784M68.1081 145.946H77.8379M58.3784 145.946V155.676M77.8379 145.946H87.5676M87.5676 145.946H97.2973M87.5676 145.946V155.676M97.2973 145.946V155.676M233.514 145.946H223.784M233.514 145.946V155.676H223.784V145.946M252.973 145.946H243.243M252.973 145.946H262.703M252.973 145.946V155.676M243.243 145.946V155.676M262.703 145.946V155.676H252.973M282.162 145.946H272.432M282.162 145.946H291.892M282.162 145.946V155.676M272.432 145.946V155.676H282.162M291.892 145.946H301.622M291.892 145.946V155.676M301.622 145.946H311.351M301.622 145.946V155.676M311.351 145.946V155.676M311.351 145.946H321.081V155.676M58.3784 155.676H48.6487M58.3784 155.676V165.405H48.6487V155.676M97.2973 155.676H87.5676M97.2973 155.676H107.027M97.2973 155.676V165.405M87.5676 155.676H77.8379M87.5676 155.676V165.405H77.8379M116.757 145.946H107.027V155.676M116.757 145.946V155.676M116.757 145.946H126.487M116.757 155.676H107.027M116.757 155.676H126.487M116.757 155.676V165.405M107.027 155.676V165.405M126.487 145.946V155.676M126.487 145.946H136.216V155.676M126.487 155.676H136.216M126.487 155.676V165.405M136.216 155.676V165.405M252.973 155.676H243.243M252.973 155.676V165.405M243.243 155.676V165.405M282.162 155.676H291.892M282.162 155.676V165.405M291.892 155.676H301.622M291.892 155.676V165.405M301.622 155.676H311.351M311.351 155.676H321.081M311.351 155.676V165.405H321.081V155.676M340.541 155.676V145.946H330.811V155.676M340.541 155.676H330.811M340.541 155.676V165.405H330.811V155.676M77.8379 155.676H68.1081V165.405M77.8379 155.676V165.405M77.8379 165.405H68.1081M77.8379 165.405V175.135M68.1081 165.405V175.135M107.027 165.405H97.2973M107.027 165.405H116.757M107.027 165.405V175.135M97.2973 165.405V175.135M116.757 165.405V175.135M116.757 165.405H126.487M136.216 165.405H126.487M136.216 165.405V175.135H126.487M126.487 165.405V175.135M252.973 165.405H243.243M252.973 165.405V175.135M243.243 165.405H233.514V175.135M243.243 165.405V175.135M291.892 165.405H282.162M291.892 165.405V175.135M291.892 165.405H301.622V175.135M282.162 165.405H272.432V175.135M282.162 165.405V175.135M38.9189 175.135V165.405H29.1892V175.135M38.9189 175.135H29.1892M38.9189 175.135V184.865M38.9189 175.135H48.6487V184.865M29.1892 175.135H19.4595V184.865H29.1892M29.1892 175.135V184.865M77.8379 175.135H68.1081M77.8379 175.135V184.865M77.8379 175.135H87.5676M68.1081 175.135V184.865H77.8379M107.027 175.135H97.2973M107.027 175.135H116.757M107.027 175.135V184.865M97.2973 175.135H87.5676M97.2973 175.135V184.865M116.757 175.135H126.487M116.757 175.135V184.865M126.487 175.135V184.865M243.243 175.135H233.514M243.243 175.135H252.973M243.243 175.135V184.865M233.514 175.135V184.865M252.973 175.135V184.865M282.162 175.135H272.432M282.162 175.135H291.892M282.162 175.135V184.865M272.432 175.135V184.865M291.892 175.135H301.622M291.892 175.135V184.865M301.622 175.135H311.351V184.865M301.622 175.135V184.865H311.351M29.1892 184.865H38.9189M38.9189 184.865H48.6487M38.9189 184.865V194.595M48.6487 184.865V194.595M48.6487 184.865H58.3784V194.595M77.8379 184.865H87.5676M87.5676 175.135V184.865M87.5676 184.865H97.2973M97.2973 184.865H107.027M97.2973 184.865V194.595M116.757 184.865H107.027M116.757 184.865H126.487M107.027 184.865V194.595M126.487 184.865H136.216V194.595M126.487 184.865V194.595M243.243 184.865H233.514M243.243 184.865H252.973M243.243 184.865V194.595M233.514 184.865H223.784V194.595M233.514 184.865V194.595M252.973 184.865V194.595M282.162 184.865H272.432M282.162 184.865H291.892M282.162 184.865V194.595M272.432 184.865H262.703V194.595M272.432 184.865V194.595M291.892 184.865V194.595M311.351 184.865H321.081V194.595M311.351 184.865V194.595M48.6487 194.595H38.9189M48.6487 194.595H58.3784M48.6487 194.595V204.324M38.9189 194.595H29.1892V204.324M38.9189 194.595V204.324M58.3784 194.595H68.1081V204.324M58.3784 194.595V204.324M107.027 194.595H97.2973M107.027 194.595V204.324M107.027 194.595H116.757V204.324M97.2973 194.595V204.324M136.216 194.595H126.487M136.216 194.595V204.324M126.487 194.595V204.324M233.514 194.595H223.784M233.514 194.595V204.324M223.784 194.595V204.324H233.514M252.973 194.595H243.243M252.973 194.595V204.324M243.243 194.595V204.324M272.432 194.595H262.703M272.432 194.595H282.162M272.432 194.595V204.324M262.703 194.595V204.324M282.162 194.595H291.892M282.162 194.595V204.324M291.892 194.595H301.622M291.892 194.595V204.324M321.081 194.595H311.351M321.081 194.595V204.324M311.351 194.595H301.622M311.351 194.595V204.324M340.541 194.595V184.865H330.811V194.595M340.541 194.595H330.811M340.541 194.595V204.324M330.811 194.595V204.324M38.9189 204.324H29.1892M38.9189 204.324H48.6487M38.9189 204.324V214.054M29.1892 204.324H19.4595V214.054H29.1892M29.1892 204.324V214.054M48.6487 204.324V214.054M68.1081 204.324H58.3784M68.1081 204.324V214.054M58.3784 204.324V214.054M87.5676 204.324V194.595H77.8379V204.324H87.5676ZM87.5676 204.324H97.2973M87.5676 204.324V214.054M107.027 204.324H97.2973M107.027 204.324H116.757M107.027 204.324V214.054H116.757V204.324M97.2973 204.324V214.054M136.216 204.324H126.487M136.216 204.324V214.054H126.487V204.324M233.514 204.324H243.243M233.514 204.324V214.054H243.243M252.973 204.324H243.243M252.973 204.324V214.054M243.243 204.324V214.054M272.432 204.324H262.703M272.432 204.324H282.162M272.432 204.324V214.054M262.703 204.324V214.054M282.162 204.324H291.892M282.162 204.324V214.054M301.622 194.595V204.324M301.622 204.324H291.892M301.622 204.324H311.351M301.622 204.324V214.054H311.351V204.324M291.892 204.324V214.054M311.351 204.324H321.081M321.081 204.324H330.811M321.081 204.324V214.054H330.811M340.541 204.324H330.811M340.541 204.324V214.054H330.811M330.811 204.324V214.054M29.1892 214.054H38.9189M29.1892 214.054V223.784M48.6487 214.054H38.9189M48.6487 214.054V223.784M48.6487 214.054H58.3784M38.9189 214.054V223.784M68.1081 214.054H58.3784M68.1081 214.054V223.784M58.3784 214.054V223.784M97.2973 214.054H87.5676M97.2973 214.054V223.784M87.5676 214.054H77.8379V223.784H87.5676M87.5676 214.054V223.784M243.243 214.054H252.973M243.243 214.054V223.784M252.973 214.054V223.784M252.973 214.054H262.703M272.432 214.054H262.703M272.432 214.054V223.784M272.432 214.054H282.162M262.703 214.054V223.784M291.892 214.054H282.162M291.892 214.054V223.784M282.162 214.054V223.784M38.9189 223.784H29.1892M38.9189 223.784H48.6487M38.9189 223.784V233.514M29.1892 223.784V233.514M48.6487 223.784H58.3784M48.6487 223.784V233.514M58.3784 223.784H68.1081M58.3784 223.784V233.514M68.1081 223.784V233.514M87.5676 223.784H97.2973M87.5676 223.784V233.514M97.2973 223.784V233.514H87.5676M252.973 223.784H243.243M252.973 223.784H262.703M252.973 223.784V233.514M243.243 223.784H233.514V233.514M243.243 223.784V233.514M262.703 223.784H272.432M262.703 223.784V233.514M272.432 223.784H282.162M272.432 223.784V233.514M282.162 223.784H291.892M282.162 223.784V233.514M291.892 223.784V233.514M38.9189 233.514H29.1892M38.9189 233.514H48.6487M38.9189 233.514V243.243H29.1892M29.1892 233.514H19.4595V243.243H29.1892M29.1892 233.514V243.243M48.6487 233.514H58.3784M48.6487 233.514V243.243M68.1081 233.514H58.3784M68.1081 233.514V243.243M68.1081 233.514H77.8379M58.3784 233.514V243.243M87.5676 233.514H77.8379M87.5676 233.514V243.243M116.757 223.784H107.027V233.514H116.757M116.757 223.784V233.514M116.757 223.784H126.487M116.757 233.514H126.487M116.757 233.514V243.243M126.487 223.784V233.514M126.487 223.784H136.216V233.514H126.487M126.487 233.514V243.243M155.676 223.784H145.946V233.514H155.676M155.676 223.784V233.514M155.676 223.784H165.405M155.676 233.514H165.405M165.405 223.784V233.514M165.405 223.784H175.135M165.405 233.514H175.135M165.405 233.514V243.243M175.135 223.784V233.514M175.135 223.784H184.865V233.514M175.135 233.514H184.865M175.135 233.514V243.243M184.865 233.514V243.243H175.135M243.243 233.514H233.514M243.243 233.514V243.243M233.514 233.514V243.243M262.703 233.514H252.973M262.703 233.514H272.432M262.703 233.514V243.243M252.973 233.514V243.243M272.432 233.514V243.243M272.432 233.514H282.162M291.892 233.514H282.162M291.892 233.514V243.243M291.892 233.514H301.622M282.162 233.514V243.243M311.351 233.514V223.784H301.622V233.514M311.351 233.514H301.622M311.351 233.514H321.081V243.243H311.351M311.351 233.514V243.243M301.622 233.514V243.243M340.541 233.514V223.784H330.811V233.514M340.541 233.514H330.811M340.541 233.514V243.243H330.811V233.514M58.3784 243.243H48.6487M58.3784 243.243H68.1081M58.3784 243.243V252.973M48.6487 243.243V252.973M68.1081 243.243H77.8379M77.8379 233.514V243.243M77.8379 243.243H87.5676M87.5676 243.243H97.2973M87.5676 243.243V252.973M126.487 243.243H116.757M126.487 243.243V252.973M116.757 243.243H107.027M116.757 243.243V252.973M175.135 243.243H165.405M165.405 243.243H155.676V252.973M165.405 243.243V252.973M214.054 233.514H204.324V243.243M214.054 233.514V243.243M214.054 233.514H223.784V243.243M214.054 243.243H204.324M214.054 243.243H223.784M214.054 243.243V252.973M204.324 243.243H194.595V252.973M204.324 243.243V252.973M223.784 243.243V252.973H214.054M243.243 243.243H233.514M243.243 243.243V252.973M243.243 243.243H252.973M233.514 243.243V252.973H243.243M262.703 243.243H252.973M262.703 243.243H272.432M262.703 243.243V252.973M252.973 243.243V252.973M272.432 243.243H282.162M282.162 243.243H291.892M282.162 243.243V252.973M291.892 243.243H301.622M291.892 243.243V252.973M301.622 243.243H311.351M301.622 243.243V252.973M311.351 243.243V252.973M58.3784 252.973H48.6487M58.3784 252.973V262.703M58.3784 252.973H68.1081M48.6487 252.973V262.703H58.3784M97.2973 243.243V252.973M97.2973 243.243H107.027M97.2973 252.973H87.5676M97.2973 252.973H107.027M97.2973 252.973V262.703M87.5676 252.973H77.8379M87.5676 252.973V262.703M107.027 243.243V252.973M107.027 252.973H116.757M107.027 252.973V262.703M116.757 252.973H126.487M116.757 252.973V262.703M126.487 252.973V262.703M165.405 252.973H155.676M165.405 252.973V262.703H155.676M155.676 252.973H145.946M155.676 252.973V262.703M204.324 252.973H194.595M204.324 252.973V262.703M204.324 252.973H214.054M194.595 252.973V262.703M214.054 252.973V262.703M243.243 252.973H252.973M252.973 252.973H262.703M252.973 252.973V262.703M262.703 252.973V262.703M262.703 252.973H272.432M291.892 252.973H282.162M291.892 252.973V262.703M291.892 252.973H301.622M282.162 252.973H272.432M282.162 252.973V262.703M311.351 252.973H301.622M311.351 252.973V262.703M301.622 252.973V262.703M29.1892 252.973H19.4595V262.703H29.1892M29.1892 252.973V262.703M29.1892 252.973H38.9189V262.703H29.1892M58.3784 262.703H68.1081M68.1081 252.973V262.703M68.1081 252.973H77.8379M68.1081 262.703H77.8379M77.8379 252.973V262.703M77.8379 262.703H87.5676M87.5676 262.703H97.2973M97.2973 262.703H107.027M97.2973 262.703V272.432M107.027 262.703H116.757M107.027 262.703V272.432M116.757 262.703H126.487M116.757 262.703V272.432M126.487 262.703H136.216M126.487 262.703V272.432M145.946 252.973H136.216V262.703M145.946 252.973V262.703M145.946 262.703H136.216M145.946 262.703H155.676M145.946 262.703V272.432M136.216 262.703V272.432M155.676 262.703V272.432M204.324 262.703H194.595M204.324 262.703H214.054M204.324 262.703V272.432M194.595 262.703H184.865V272.432M194.595 262.703V272.432M214.054 262.703H223.784V272.432M214.054 262.703V272.432M262.703 262.703H252.973M262.703 262.703H272.432M262.703 262.703V272.432M252.973 262.703H243.243V272.432M252.973 262.703V272.432M272.432 252.973V262.703M272.432 262.703H282.162M282.162 262.703H291.892M291.892 262.703H301.622M291.892 262.703V272.432M301.622 262.703H311.351M301.622 262.703V272.432M311.351 262.703V272.432M311.351 262.703H321.081M330.811 252.973H321.081V262.703M330.811 252.973V262.703M330.811 252.973H340.541V262.703M330.811 262.703H321.081M330.811 262.703H340.541M330.811 262.703V272.432M321.081 262.703V272.432H311.351M340.541 262.703V272.432M107.027 272.432H97.2973M107.027 272.432H116.757M107.027 272.432V282.162M97.2973 272.432V282.162M116.757 272.432V282.162M116.757 272.432H126.487M136.216 272.432H126.487M136.216 272.432H145.946M136.216 272.432V282.162M126.487 272.432V282.162M145.946 272.432H155.676M145.946 272.432V282.162M155.676 272.432V282.162M194.595 272.432H184.865M194.595 272.432H204.324M194.595 272.432V282.162M184.865 272.432V282.162M204.324 272.432V282.162M204.324 272.432H214.054M223.784 272.432H214.054M223.784 272.432V282.162M223.784 272.432H233.514M214.054 272.432V282.162M252.973 272.432H243.243M252.973 272.432H262.703M252.973 272.432V282.162M243.243 272.432H233.514M243.243 272.432V282.162M262.703 272.432V282.162M301.622 272.432H291.892M301.622 272.432H311.351M301.622 272.432V282.162M291.892 272.432V282.162M311.351 272.432V282.162M340.541 272.432H330.811M340.541 272.432V282.162M330.811 272.432V282.162M29.1892 272.432H19.4595V282.162M29.1892 272.432V282.162M29.1892 272.432H38.9189M29.1892 282.162H19.4595M29.1892 282.162H38.9189M29.1892 282.162V291.892M19.4595 282.162V291.892M38.9189 272.432V282.162M38.9189 272.432H48.6487M38.9189 282.162H48.6487M48.6487 272.432V282.162M48.6487 272.432H58.3784M48.6487 282.162H58.3784M58.3784 272.432V282.162M58.3784 272.432H68.1081M58.3784 282.162H68.1081M68.1081 272.432V282.162M68.1081 272.432H77.8379M68.1081 282.162H77.8379M77.8379 272.432V282.162M77.8379 272.432H87.5676V282.162M77.8379 282.162H87.5676M77.8379 282.162V291.892M87.5676 282.162V291.892M107.027 282.162H97.2973M107.027 282.162H116.757M107.027 282.162V291.892M97.2973 282.162V291.892H107.027M116.757 282.162H126.487M116.757 282.162V291.892M126.487 282.162H136.216M136.216 282.162H145.946M145.946 282.162H155.676M145.946 282.162V291.892H155.676M155.676 282.162V291.892M155.676 282.162H165.405V291.892M194.595 282.162H184.865M194.595 282.162H204.324M194.595 282.162V291.892M184.865 282.162H175.135V291.892M184.865 282.162V291.892M204.324 282.162H214.054M204.324 282.162V291.892M214.054 282.162H223.784M214.054 282.162V291.892M223.784 282.162H233.514M233.514 272.432V282.162M233.514 282.162H243.243M233.514 282.162V291.892M243.243 282.162V291.892M243.243 282.162H252.973M262.703 282.162H252.973M262.703 282.162V291.892M252.973 282.162V291.892M301.622 282.162H291.892M301.622 282.162H311.351M301.622 282.162V291.892M291.892 282.162V291.892M311.351 282.162V291.892M340.541 282.162H330.811M340.541 282.162V291.892H330.811M330.811 282.162H321.081V291.892H330.811M330.811 282.162V291.892M29.1892 291.892H19.4595M29.1892 291.892V301.622M19.4595 291.892V301.622M87.5676 291.892H77.8379M87.5676 291.892V301.622M77.8379 291.892V301.622M107.027 291.892H116.757M116.757 291.892H126.487V301.622M116.757 291.892V301.622M155.676 291.892H165.405M165.405 291.892H175.135M165.405 291.892V301.622M184.865 291.892H175.135M184.865 291.892H194.595M184.865 291.892V301.622H175.135M175.135 291.892V301.622M194.595 291.892H204.324M204.324 291.892H214.054M214.054 291.892H223.784M214.054 291.892V301.622M243.243 291.892H233.514M243.243 291.892H252.973M243.243 291.892V301.622M233.514 291.892H223.784M233.514 291.892V301.622M252.973 291.892H262.703M252.973 291.892V301.622M262.703 291.892V301.622M262.703 291.892H272.432M301.622 291.892H291.892M301.622 291.892H311.351M301.622 291.892V301.622M291.892 291.892H282.162M291.892 291.892V301.622M311.351 291.892V301.622M29.1892 301.622H19.4595M29.1892 301.622V311.351M19.4595 301.622V311.351M48.6487 291.892H38.9189V301.622M48.6487 291.892V301.622M48.6487 291.892H58.3784M48.6487 301.622H38.9189M48.6487 301.622H58.3784M48.6487 301.622V311.351M38.9189 301.622V311.351M58.3784 291.892V301.622M58.3784 291.892H68.1081V301.622M58.3784 301.622H68.1081M58.3784 301.622V311.351M68.1081 301.622V311.351M87.5676 301.622H77.8379M87.5676 301.622V311.351M77.8379 301.622V311.351M126.487 301.622H116.757M126.487 301.622V311.351M126.487 301.622H136.216V311.351M116.757 301.622V311.351M175.135 301.622H165.405M175.135 301.622V311.351M165.405 301.622V311.351M223.784 291.892V301.622M223.784 301.622H214.054M223.784 301.622H233.514M223.784 301.622V311.351M214.054 301.622H204.324V311.351H214.054M214.054 301.622V311.351M233.514 301.622H243.243M233.514 301.622V311.351M243.243 301.622H252.973M243.243 301.622V311.351M252.973 301.622H262.703M262.703 301.622H272.432M262.703 301.622V311.351M272.432 291.892V301.622M272.432 291.892H282.162M272.432 301.622H282.162M272.432 301.622V311.351H262.703M282.162 291.892V301.622M282.162 301.622H291.892M282.162 301.622V311.351H291.892M291.892 301.622H301.622M291.892 301.622V311.351M301.622 301.622H311.351M301.622 301.622V311.351M311.351 301.622V311.351M311.351 301.622H321.081M29.1892 311.351H19.4595M29.1892 311.351V321.081M19.4595 311.351V321.081M48.6487 311.351H38.9189M48.6487 311.351H58.3784M48.6487 311.351V321.081M38.9189 311.351V321.081H48.6487M58.3784 311.351H68.1081M58.3784 311.351V321.081M68.1081 311.351V321.081H58.3784M87.5676 311.351H77.8379M87.5676 311.351V321.081M77.8379 311.351V321.081M126.487 311.351H116.757M126.487 311.351H136.216M126.487 311.351V321.081M116.757 311.351H107.027M116.757 311.351V321.081M136.216 311.351V321.081M136.216 311.351H145.946M155.676 311.351V301.622H145.946V311.351M155.676 311.351H145.946M155.676 311.351V321.081M155.676 311.351H165.405M145.946 311.351V321.081M175.135 311.351H165.405M175.135 311.351H184.865M175.135 311.351V321.081M165.405 311.351V321.081M214.054 311.351H223.784M223.784 311.351H233.514M233.514 311.351H243.243M233.514 311.351V321.081M243.243 311.351V321.081M262.703 311.351H252.973V321.081M262.703 311.351V321.081M291.892 311.351H301.622M291.892 311.351V321.081H301.622V311.351M301.622 311.351H311.351M311.351 311.351H321.081M321.081 301.622V311.351M321.081 301.622H330.811V311.351M321.081 311.351H330.811M321.081 311.351V321.081H330.811M330.811 311.351V321.081M330.811 311.351H340.541V321.081H330.811M29.1892 321.081H19.4595M29.1892 321.081V330.811M19.4595 321.081V330.811M48.6487 321.081H58.3784M87.5676 321.081H77.8379M87.5676 321.081V330.811M77.8379 321.081V330.811M107.027 311.351H97.2973V321.081H107.027M107.027 311.351V321.081M107.027 321.081H116.757M107.027 321.081V330.811M116.757 321.081V330.811M116.757 321.081H126.487M136.216 321.081H126.487M136.216 321.081H145.946M136.216 321.081V330.811M126.487 321.081V330.811H116.757M145.946 321.081H155.676M145.946 321.081V330.811M155.676 321.081H165.405M155.676 321.081V330.811M165.405 321.081V330.811M165.405 321.081H175.135M184.865 311.351V321.081M184.865 311.351H194.595V321.081H184.865M184.865 321.081H175.135M175.135 321.081V330.811M243.243 321.081H233.514M243.243 321.081V330.811H233.514V321.081M262.703 321.081H252.973M262.703 321.081V330.811M252.973 321.081V330.811M29.1892 330.811H19.4595M29.1892 330.811V340.541M29.1892 330.811H38.9189M19.4595 330.811V340.541H29.1892M87.5676 330.811H77.8379M87.5676 330.811V340.541H77.8379M77.8379 330.811H68.1081M77.8379 330.811V340.541M116.757 330.811H107.027M116.757 330.811V340.541H107.027V330.811M145.946 330.811H136.216M145.946 330.811H155.676M145.946 330.811V340.541H136.216V330.811M155.676 330.811H165.405M165.405 330.811H175.135M165.405 330.811V340.541H175.135M175.135 330.811V340.541M175.135 330.811H184.865M262.703 330.811H252.973M262.703 330.811V340.541H252.973V330.811M29.1892 340.541H38.9189M38.9189 330.811V340.541M38.9189 330.811H48.6487M38.9189 340.541H48.6487M48.6487 330.811V340.541M48.6487 330.811H58.3784M48.6487 340.541H58.3784M58.3784 330.811V340.541M58.3784 330.811H68.1081M58.3784 340.541H68.1081M68.1081 330.811V340.541M68.1081 340.541H77.8379M175.135 340.541H184.865M184.865 330.811V340.541M184.865 330.811H194.595M184.865 340.541H194.595M194.595 330.811V340.541M194.595 330.811H204.324M194.595 340.541H204.324M204.324 330.811V340.541M204.324 330.811H214.054M204.324 340.541H214.054M214.054 330.811V340.541M214.054 330.811H223.784V340.541H214.054M301.622 330.811H291.892V340.541H301.622M301.622 330.811V340.541M301.622 330.811H311.351M301.622 340.541H311.351M311.351 330.811V340.541M311.351 330.811H321.081V340.541H311.351M175.135 19.4595H184.865V29.1892H175.135V19.4595ZM252.973 19.4595H262.703V29.1892H252.973V19.4595ZM116.757 77.8379H126.487V87.5676H116.757V77.8379ZM19.4595 107.027H29.1892V116.757H19.4595V107.027ZM223.784 107.027H233.514V116.757H223.784V107.027ZM272.432 272.432H282.162V282.162H272.432V272.432ZM272.432 330.811H282.162V340.541H272.432V330.811ZM330.811 330.811H340.541V340.541H330.811V330.811Z" stroke="black" stroke-width="0.5"/>
</svg>
