<svg width="40" height="41" viewBox="0 0 40 41" fill="none" xmlns="http://www.w3.org/2000/svg">
<circle cx="20" cy="20.4745" r="20" fill="#F40000"/>
<path d="M28.7131 19.3877C28.7131 18.9998 28.6485 18.5473 28.6485 18.0301C28.5839 17.5129 28.5192 16.9958 28.4545 16.5432C28.3253 16.0261 28.1313 15.6382 27.7434 15.315C27.4202 14.9917 26.9677 14.7978 26.5152 14.7331C25.0283 14.5392 22.8303 14.4745 19.8566 14.4745C16.8828 14.4745 14.6202 14.5392 13.198 14.7331C12.7455 14.7978 12.2929 14.9917 11.9697 15.315C11.6465 15.6382 11.3879 16.0261 11.2586 16.5432C11.1293 16.9958 11.0647 17.4483 11.0647 18.0301C11 18.5473 11 18.9998 11 19.3877C11 19.7756 11 20.2281 11 20.8745C11 21.521 11 22.0382 11 22.3614C11 22.7493 11.0647 23.2018 11.0647 23.719C11.1293 24.2362 11.1939 24.7533 11.2586 25.2059C11.3879 25.723 11.5818 26.1109 11.9697 26.4341C12.2929 26.7574 12.7455 26.9513 13.198 27.016C14.6848 27.2099 16.8828 27.2746 19.8566 27.2746C22.8303 27.2746 25.0929 27.2099 26.5152 27.016C26.9677 26.9513 27.4202 26.7574 27.7434 26.4341C28.0667 26.1109 28.3253 25.723 28.4545 25.2059C28.5838 24.7533 28.6485 24.3008 28.6485 23.719C28.7131 23.2018 28.7131 22.7493 28.7131 22.3614C28.7131 21.9735 28.7131 21.521 28.7131 20.8745C28.7131 20.2281 28.7131 19.7109 28.7131 19.3877ZM23.2828 21.3917L18.1758 24.5594C18.1111 24.624 17.9818 24.6887 17.8525 24.6887C17.7232 24.6887 17.6586 24.6887 17.5293 24.624C17.3354 24.4947 17.2061 24.3008 17.2061 24.0422V17.6422C17.2061 17.3836 17.3354 17.1897 17.5293 17.0604C17.7232 16.9311 17.9818 16.9311 18.1758 17.0604L23.2828 20.2281C23.4768 20.3574 23.6061 20.5513 23.6061 20.7453C23.6061 20.9392 23.4768 21.2624 23.2828 21.3917Z" fill="white"/>
</svg>
